<?xml version="1.0" encoding="UTF-8" standalone="no"?>
<!-- Created with Inkscape (http://www.inkscape.org/) -->

<svg
 xmlns:dc="http://purl.org/dc/elements/1.1/"
 xmlns:cc="http://creativecommons.org/ns#"
 xmlns:rdf="http://www.w3.org/1999/02/22-rdf-syntax-ns#"
 xmlns:svg="http://www.w3.org/2000/svg"
 xmlns="http://www.w3.org/2000/svg"
 xmlns:xlink="http://www.w3.org/1999/xlink"
 xmlns:sodipodi="http://sodipodi.sourceforge.net/DTD/sodipodi-0.dtd"
 xmlns:inkscape="http://www.inkscape.org/namespaces/inkscape"
 width="744.09448819"
 height="1052.3622047"
 id="svg2"
 version="1.1"
 inkscape:version="0.48.4 r"
 sodipodi:docname="workspace.svg"
 enable-background="new">
<defs
 id="defs4">
<linearGradient
 id="linearGradient4874">
<stop
 style="stop-color:#f4dd89;stop-opacity:1;"
 offset="0"
 id="stop4876" />
<stop
 style="stop-color:#000000;stop-opacity:0;"
 offset="1"
 id="stop4878" />
</linearGradient>
<linearGradient
 id="linearGradient4837">
<stop
 id="stop4839"
 offset="0"
 style="stop-color:#e0ae14;stop-opacity:0;" />
<stop
 style="stop-color:#c0ae23;stop-opacity:1;"
 offset="0.5"
 id="stop4841" />
<stop
 id="stop4845"
 offset="1"
 style="stop-color:#694d0b;stop-opacity:1;" />
</linearGradient>
<linearGradient
 id="linearGradient4827">
<stop
 id="stop4829"
 offset="0"
 style="stop-color:#f8e3b1;stop-opacity:0.73949581;" />
<stop
 style="stop-color:#7f7317;stop-opacity:1;"
 offset="0.5"
 id="stop4831" />
<stop
 id="stop4833"
 offset="0.75"
 style="stop-color:#b0a126;stop-opacity:1;" />
<stop
 id="stop4835"
 offset="1"
 style="stop-color:#f9f4c4;stop-opacity:1;" />
</linearGradient>
<linearGradient
 id="linearGradient3242">
<stop
 style="stop-color:#f0e060;stop-opacity:1;"
 offset="0"
 id="stop3244" />
<stop
 id="stop3262"
 offset="0.79469007"
 style="stop-color:#ecd72f;stop-opacity:1;" />
<stop
 style="stop-color:#f5e988;stop-opacity:1;"
 offset="1"
 id="stop3246" />
</linearGradient>
<linearGradient
 id="linearGradient3234">
<stop
 style="stop-color:#f8f0b1;stop-opacity:1;"
 offset="0"
 id="stop3236" />
<stop
 id="stop4222"
 offset="0.5"
 style="stop-color:#7f7317;stop-opacity:1;" />
<stop
 style="stop-color:#dacc56;stop-opacity:1;"
 offset="0.75"
 id="stop4226" />
<stop
 style="stop-color:#f9f4c4;stop-opacity:1;"
 offset="1"
 id="stop3238" />
</linearGradient>
<filter
 id="filter3193"
 inkscape:label="Lightness-Contrast"
 inkscape:menu="Color"
 inkscape:menu-tooltip="Increase or decrease lightness and contrast"
 color-interpolation-filters="sRGB"
 x="0"
 y="0"
 width="1"
 height="1.04">
<feGaussianBlur
 id="feGaussianBlur3195"
 stdDeviation="5.5430434782608691"
 result="result8" />
<feOffset
 id="feOffset3197"
 dx="0"
 dy="0"
 result="result11" />
<feComposite
 id="feComposite3199"
 in2="result11"
 result="result6"
 in="SourceGraphic"
 operator="in" />
<feFlood
 id="feFlood3201"
 result="result10"
 in="result6"
 flood-opacity="1"
 flood-color="rgb(0,0,0)" />
<feBlend
 id="feBlend3203"
 in2="result10"
 mode="normal"
 in="result6"
 result="result12" />
<feComposite
 id="feComposite3205"
 in2="SourceGraphic"
 result="fbSourceGraphic"
 operator="in" />
<feColorMatrix
 result="fbSourceGraphicAlpha"
 in="fbSourceGraphic"
 values="0 0 0 -1 0 0 0 0 -1 0 0 0 0 -1 0 0 0 0 1 0"
 id="feColorMatrix4058" />
<feFlood
 id="feFlood4060"
 result="result1"
 flood-opacity="0"
 flood-color="rgb(128,128,128)"
 in="fbSourceGraphic" />
<feBlend
 id="feBlend4062"
 in2="fbSourceGraphic"
 mode="normal"
 result="result2" />
<feComposite
 id="feComposite4064"
 in2="fbSourceGraphic"
 k2="1"
 operator="arithmetic"
 result="result13" />
<feComposite
 id="feComposite4066"
 in2="fbSourceGraphic"
 operator="in" />
</filter>
<filter
 id="filter4038"
 x="0"
 y="0"
 width="1"
 height="1"
 inkscape:label="Lightness-Contrast"
 inkscape:menu="Color"
 inkscape:menu-tooltip="Increase or decrease lightness and contrast"
 color-interpolation-filters="sRGB">
<feFlood
 id="feFlood4040"
 result="result1"
 flood-opacity="0"
 flood-color="rgb(128,128,128)" />
<feBlend
 id="feBlend4042"
 in2="SourceGraphic"
 mode="normal"
 result="result2" />
<feComposite
 id="feComposite4044"
 in2="SourceGraphic"
 k2="1"
 operator="arithmetic"
 result="result3" />
<feComposite
 id="feComposite4046"
 in2="SourceGraphic"
 operator="in"
 result="fbSourceGraphic" />
<feColorMatrix
 result="fbSourceGraphicAlpha"
 in="fbSourceGraphic"
 values="0 0 0 -1 0 0 0 0 -1 0 0 0 0 -1 0 0 0 0 1 0"
 id="feColorMatrix4048" />
<feFlood
 id="feFlood4050"
 result="result1"
 flood-opacity="0"
 flood-color="rgb(128,128,128)"
 in="fbSourceGraphic" />
<feBlend
 id="feBlend4052"
 in2="fbSourceGraphic"
 mode="normal"
 result="result2" />
<feComposite
 id="feComposite4054"
 in2="fbSourceGraphic"
 k2="1"
 operator="arithmetic"
 result="result4" />
<feComposite
 id="feComposite4056"
 in2="fbSourceGraphic"
 operator="in" />
</filter>
<radialGradient
 inkscape:collect="always"
 xlink:href="#linearGradient3242"
 id="radialGradient4155"
 gradientUnits="userSpaceOnUse"
 gradientTransform="matrix(0.00161368,-5.1118689,5.1118659,0.00161023,-1197.5495,3196.3452)"
 cx="599.43182"
 cy="276.72781"
 fx="600.74774"
 fy="279.67035"
 r="9.5425152" />
<radialGradient
 inkscape:collect="always"
 xlink:href="#linearGradient3242"
 id="radialGradient4157"
 gradientUnits="userSpaceOnUse"
 gradientTransform="matrix(0.00161368,-5.1118689,5.1118659,0.00161023,-1197.5495,3196.3452)"
 cx="599.43182"
 cy="276.72781"
 fx="600.74774"
 fy="279.67035"
 r="9.5425152" />
<radialGradient
 inkscape:collect="always"
 xlink:href="#linearGradient3242"
 id="radialGradient4163"
 gradientUnits="userSpaceOnUse"
 gradientTransform="matrix(3.2273916e-4,-1.022384,1.0223834,3.2204929e-4,-137.53951,757.89669)"
 cx="599.43182"
 cy="276.72781"
 fx="600.74774"
 fy="279.67035"
 r="9.5425152" />
<radialGradient
 inkscape:collect="always"
 xlink:href="#linearGradient3242"
 id="radialGradient4185"
 gradientUnits="userSpaceOnUse"
 gradientTransform="matrix(0.00161368,-5.1118689,5.1118659,0.00161023,-1197.5495,3196.3452)"
 cx="599.43182"
 cy="276.72781"
 fx="600.74774"
 fy="279.67035"
 r="9.5425152" />
<radialGradient
 inkscape:collect="always"
 xlink:href="#linearGradient3234"
 id="radialGradient4220"
 cx="450.69876"
 cy="918.60425"
 fx="450.69876"
 fy="918.60425"
 r="53.477648"
 gradientTransform="matrix(-2.5416676,0.7516071,-0.25596261,-0.86550255,1844.8703,1143.274)"
 gradientUnits="userSpaceOnUse" />
<radialGradient
 inkscape:collect="always"
 xlink:href="#linearGradient3234"
 id="radialGradient4236"
 gradientUnits="userSpaceOnUse"
 gradientTransform="matrix(-2.5416676,0.7516071,-0.25596261,-0.86550255,1846.6203,1195.524)"
 cx="450.69876"
 cy="918.60425"
 fx="450.69876"
 fy="918.60425"
 r="53.477648" />
<filter
 id="filter4308"
 inkscape:label="filter3">
<feBlend
 blend="normal"
 id="feBlend4310"
 in2="BackgroundImage"
 mode="multiply" />
</filter>
<radialGradient
 inkscape:collect="always"
 xlink:href="#linearGradient3234"
 id="radialGradient4444"
 gradientUnits="userSpaceOnUse"
 gradientTransform="matrix(-2.5416676,0.7516071,-0.25596261,-0.86550255,1811.6185,1335.1776)"
 cx="450.69876"
 cy="918.60425"
 fx="450.69876"
 fy="918.60425"
 r="53.477648" />
<radialGradient
 inkscape:collect="always"
 xlink:href="#linearGradient3234"
 id="radialGradient4453"
 gradientUnits="userSpaceOnUse"
 gradientTransform="matrix(-2.5416676,0.7516071,-0.25596261,-0.86550255,1813.4041,1256.411)"
 cx="450.69876"
 cy="918.60425"
 fx="450.69876"
 fy="918.60425"
 r="53.477648" />
<radialGradient
 inkscape:collect="always"
 xlink:href="#linearGradient3234"
 id="radialGradient4459"
 gradientUnits="userSpaceOnUse"
 gradientTransform="matrix(-2.5416676,0.7516071,-0.25596261,-0.86550255,1693.8852,1261.6385)"
 cx="450.69876"
 cy="918.60425"
 fx="450.69876"
 fy="918.60425"
 r="53.477648" />
<radialGradient
 inkscape:collect="always"
 xlink:href="#linearGradient3234"
 id="radialGradient4470"
 gradientUnits="userSpaceOnUse"
 gradientTransform="matrix(-2.5416676,0.7516071,-0.25596261,-0.86550255,1986.1147,1215.3903)"
 cx="450.69876"
 cy="918.60425"
 fx="450.69876"
 fy="918.60425"
 r="53.477648" />
<radialGradient
 inkscape:collect="always"
 xlink:href="#linearGradient3242"
 id="radialGradient4478"
 gradientUnits="userSpaceOnUse"
 gradientTransform="matrix(0.00161368,-5.1118689,5.1118659,0.00161023,-1197.5495,3196.3452)"
 cx="599.43182"
 cy="276.72781"
 fx="600.74774"
 fy="279.67035"
 r="9.5425152" />
<radialGradient
 inkscape:collect="always"
 xlink:href="#linearGradient3234"
 id="radialGradient4492"
 gradientUnits="userSpaceOnUse"
 gradientTransform="matrix(-2.5416676,0.7516071,-0.25596261,-0.86550255,1742.1263,1181.3728)"
 cx="450.69876"
 cy="918.60425"
 fx="450.69876"
 fy="918.60425"
 r="53.477648" />
<radialGradient
 inkscape:collect="always"
 xlink:href="#linearGradient3234"
 id="radialGradient4528"
 gradientUnits="userSpaceOnUse"
 gradientTransform="matrix(-2.5416676,0.7516071,-0.25596261,-0.86550255,1742.1263,1181.3728)"
 cx="450.69876"
 cy="918.60425"
 fx="450.69876"
 fy="918.60425"
 r="53.477648" />
<radialGradient
 inkscape:collect="always"
 xlink:href="#linearGradient3234"
 id="radialGradient4549"
 gradientUnits="userSpaceOnUse"
 gradientTransform="matrix(-2.5416676,0.7516071,-0.25596261,-0.86550255,1742.1263,1181.3728)"
 cx="450.69876"
 cy="918.60425"
 fx="450.69876"
 fy="918.60425"
 r="53.477648" />
<radialGradient
 inkscape:collect="always"
 xlink:href="#linearGradient3242"
 id="radialGradient4614"
 gradientUnits="userSpaceOnUse"
 gradientTransform="matrix(0.00161368,-5.1118689,5.1118659,0.00161023,-1197.5495,3196.3452)"
 cx="599.43182"
 cy="276.72781"
 fx="600.74774"
 fy="279.67035"
 r="9.5425152" />
<radialGradient
 inkscape:collect="always"
 xlink:href="#linearGradient3234"
 id="radialGradient4616"
 gradientUnits="userSpaceOnUse"
 gradientTransform="matrix(-2.5416676,0.7516071,-0.25596261,-0.86550255,1742.1263,1181.3728)"
 cx="450.69876"
 cy="918.60425"
 fx="450.69876"
 fy="918.60425"
 r="53.477648" />
<radialGradient
 inkscape:collect="always"
 xlink:href="#linearGradient3234"
 id="radialGradient4618"
 gradientUnits="userSpaceOnUse"
 gradientTransform="matrix(-2.5416676,0.7516071,-0.25596261,-0.86550255,1742.1263,1181.3728)"
 cx="450.69876"
 cy="918.60425"
 fx="450.69876"
 fy="918.60425"
 r="53.477648" />
<radialGradient
 inkscape:collect="always"
 xlink:href="#linearGradient3234"
 id="radialGradient4620"
 gradientUnits="userSpaceOnUse"
 gradientTransform="matrix(-2.5416676,0.7516071,-0.25596261,-0.86550255,1742.1263,1181.3728)"
 cx="450.69876"
 cy="918.60425"
 fx="450.69876"
 fy="918.60425"
 r="53.477648" />
<radialGradient
 inkscape:collect="always"
 xlink:href="#linearGradient3234"
 id="radialGradient4622"
 gradientUnits="userSpaceOnUse"
 gradientTransform="matrix(-2.5416676,0.7516071,-0.25596261,-0.86550255,1742.1263,1181.3728)"
 cx="450.69876"
 cy="918.60425"
 fx="450.69876"
 fy="918.60425"
 r="53.477648" />
<radialGradient
 inkscape:collect="always"
 xlink:href="#linearGradient3234"
 id="radialGradient4624"
 gradientUnits="userSpaceOnUse"
 gradientTransform="matrix(-2.5416676,0.7516071,-0.25596261,-0.86550255,1742.1263,1181.3728)"
 cx="450.69876"
 cy="918.60425"
 fx="450.69876"
 fy="918.60425"
 r="53.477648" />
<radialGradient
 inkscape:collect="always"
 xlink:href="#linearGradient3234"
 id="radialGradient4626"
 gradientUnits="userSpaceOnUse"
 gradientTransform="matrix(-2.5416676,0.7516071,-0.25596261,-0.86550255,1742.1263,1181.3728)"
 cx="450.69876"
 cy="918.60425"
 fx="450.69876"
 fy="918.60425"
 r="53.477648" />
<radialGradient
 inkscape:collect="always"
 xlink:href="#linearGradient3234"
 id="radialGradient4628"
 gradientUnits="userSpaceOnUse"
 gradientTransform="matrix(-2.5416676,0.7516071,-0.25596261,-0.86550255,1675.1144,1231.4216)"
 cx="450.69876"
 cy="918.60425"
 fx="450.69876"
 fy="918.60425"
 r="53.477648" />
<radialGradient
 inkscape:collect="always"
 xlink:href="#linearGradient3234"
 id="radialGradient4630"
 gradientUnits="userSpaceOnUse"
 gradientTransform="matrix(-2.5416676,0.7516071,-0.25596261,-0.86550255,1844.8703,1143.274)"
 cx="450.69876"
 cy="918.60425"
 fx="450.69876"
 fy="918.60425"
 r="53.477648" />
<radialGradient
 inkscape:collect="always"
 xlink:href="#linearGradient3234"
 id="radialGradient4688"
 gradientUnits="userSpaceOnUse"
 gradientTransform="matrix(-2.5416676,0.7516071,-0.25596261,-0.86550255,1742.1263,1181.3728)"
 cx="450.69876"
 cy="918.60425"
 fx="450.69876"
 fy="918.60425"
 r="53.477648" />
<radialGradient
 inkscape:collect="always"
 xlink:href="#linearGradient3234"
 id="radialGradient4715"
 gradientUnits="userSpaceOnUse"
 gradientTransform="matrix(-2.5416676,0.7516071,-0.25596261,-0.86550255,1742.1263,1181.3728)"
 cx="450.69876"
 cy="918.60425"
 fx="450.69876"
 fy="918.60425"
 r="53.477648" />
<radialGradient
 inkscape:collect="always"
 xlink:href="#linearGradient3234"
 id="radialGradient4761"
 gradientUnits="userSpaceOnUse"
 gradientTransform="matrix(-2.5416676,0.7516071,-0.25596261,-0.86550255,1742.1263,1181.3728)"
 cx="450.69876"
 cy="918.60425"
 fx="450.69876"
 fy="918.60425"
 r="53.477648" />
<radialGradient
 inkscape:collect="always"
 xlink:href="#linearGradient3234"
 id="radialGradient4806"
 gradientUnits="userSpaceOnUse"
 gradientTransform="matrix(-2.5416676,0.7516071,-0.25596261,-0.86550255,1742.1263,1181.3728)"
 cx="450.69876"
 cy="918.60425"
 fx="450.69876"
 fy="918.60425"
 r="53.477648" />
<radialGradient
 inkscape:collect="always"
 xlink:href="#linearGradient3242"
 id="radialGradient4902"
 gradientUnits="userSpaceOnUse"
 gradientTransform="matrix(0.00161368,-5.1118689,5.1118659,0.00161023,-1197.5495,3196.3452)"
 cx="599.43182"
 cy="276.72781"
 fx="600.74774"
 fy="279.67035"
 r="9.5425152" />
<radialGradient
 inkscape:collect="always"
 xlink:href="#linearGradient4874"
 id="radialGradient4904"
 gradientUnits="userSpaceOnUse"
 gradientTransform="matrix(-0.50936954,-0.51970066,1.0000009,-0.98012191,-286.24529,2059.981)"
 cx="429.32458"
 cy="928.66302"
 fx="429.32458"
 fy="928.66302"
 r="16.970562" />
<radialGradient
 inkscape:collect="always"
 xlink:href="#linearGradient3234"
 id="radialGradient4980"
 gradientUnits="userSpaceOnUse"
 gradientTransform="matrix(-2.5416676,0.7516071,-0.25596261,-0.86550255,1742.1263,1181.3728)"
 cx="450.69876"
 cy="918.60425"
 fx="450.69876"
 fy="918.60425"
 r="53.477648" />
<radialGradient
 inkscape:collect="always"
 xlink:href="#linearGradient3234"
 id="radialGradient5026"
 gradientUnits="userSpaceOnUse"
 gradientTransform="matrix(-2.5416676,0.7516071,-0.25596261,-0.86550255,1742.1263,1181.3728)"
 cx="450.69876"
 cy="918.60425"
 fx="450.69876"
 fy="918.60425"
 r="53.477648" />
<radialGradient
 inkscape:collect="always"
 xlink:href="#linearGradient3242"
 id="radialGradient5054"
 gradientUnits="userSpaceOnUse"
 gradientTransform="matrix(0.00161368,-5.1118689,5.1118659,0.00161023,-1197.5495,3196.3452)"
 cx="599.43182"
 cy="276.72781"
 fx="600.74774"
 fy="279.67035"
 r="9.5425152" />
<radialGradient
 inkscape:collect="always"
 xlink:href="#linearGradient4874"
 id="radialGradient5056"
 gradientUnits="userSpaceOnUse"
 gradientTransform="matrix(-0.50936954,-0.51970066,1.0000009,-0.98012191,-286.24529,2059.981)"
 cx="429.32458"
 cy="928.66302"
 fx="429.32458"
 fy="928.66302"
 r="16.970562" />
<radialGradient
 inkscape:collect="always"
 xlink:href="#linearGradient3234"
 id="radialGradient5058"
 gradientUnits="userSpaceOnUse"
 gradientTransform="matrix(-2.5416676,0.7516071,-0.25596261,-0.86550255,1742.1263,1181.3728)"
 cx="450.69876"
 cy="918.60425"
 fx="450.69876"
 fy="918.60425"
 r="53.477648" />
<radialGradient
 inkscape:collect="always"
 xlink:href="#linearGradient3234"
 id="radialGradient5060"
 gradientUnits="userSpaceOnUse"
 gradientTransform="matrix(-2.5416676,0.7516071,-0.25596261,-0.86550255,1742.1263,1181.3728)"
 cx="450.69876"
 cy="918.60425"
 fx="450.69876"
 fy="918.60425"
 r="53.477648" />
<radialGradient
 inkscape:collect="always"
 xlink:href="#linearGradient3234"
 id="radialGradient5062"
 gradientUnits="userSpaceOnUse"
 gradientTransform="matrix(-2.5416676,0.7516071,-0.25596261,-0.86550255,1742.1263,1181.3728)"
 cx="450.69876"
 cy="918.60425"
 fx="450.69876"
 fy="918.60425"
 r="53.477648" />
<radialGradient
 inkscape:collect="always"
 xlink:href="#linearGradient3234"
 id="radialGradient5064"
 gradientUnits="userSpaceOnUse"
 gradientTransform="matrix(-2.5416676,0.7516071,-0.25596261,-0.86550255,1742.1263,1181.3728)"
 cx="450.69876"
 cy="918.60425"
 fx="450.69876"
 fy="918.60425"
 r="53.477648" />
<radialGradient
 inkscape:collect="always"
 xlink:href="#linearGradient3234"
 id="radialGradient5066"
 gradientUnits="userSpaceOnUse"
 gradientTransform="matrix(-2.5416676,0.7516071,-0.25596261,-0.86550255,1742.1263,1181.3728)"
 cx="450.69876"
 cy="918.60425"
 fx="450.69876"
 fy="918.60425"
 r="53.477648" />
<radialGradient
 inkscape:collect="always"
 xlink:href="#linearGradient3234"
 id="radialGradient5068"
 gradientUnits="userSpaceOnUse"
 gradientTransform="matrix(-2.5416676,0.7516071,-0.25596261,-0.86550255,1742.1263,1181.3728)"
 cx="450.69876"
 cy="918.60425"
 fx="450.69876"
 fy="918.60425"
 r="53.477648" />
<radialGradient
 inkscape:collect="always"
 xlink:href="#linearGradient4837"
 id="radialGradient5070"
 gradientUnits="userSpaceOnUse"
 gradientTransform="matrix(-2.5416676,0.7516071,-0.25596261,-0.86550255,1842.1044,1340.8898)"
 cx="450.69876"
 cy="918.60425"
 fx="450.69876"
 fy="918.60425"
 r="53.47765" />
<radialGradient
 inkscape:collect="always"
 xlink:href="#linearGradient3242"
 id="radialGradient7535"
 gradientUnits="userSpaceOnUse"
 gradientTransform="matrix(0.00161368,-5.1118689,5.1118659,0.00161023,-1197.5495,3196.3452)"
 cx="599.43182"
 cy="276.72781"
 fx="600.74774"
 fy="279.67035"
 r="9.5425152" />
<radialGradient
 inkscape:collect="always"
 xlink:href="#linearGradient4874"
 id="radialGradient7537"
 gradientUnits="userSpaceOnUse"
 gradientTransform="matrix(-0.50936954,-0.51970066,1.0000009,-0.98012191,-286.24529,2059.981)"
 cx="429.32458"
 cy="928.66302"
 fx="429.32458"
 fy="928.66302"
 r="16.970562" />
<radialGradient
 inkscape:collect="always"
 xlink:href="#linearGradient3242"
 id="radialGradient7545"
 gradientUnits="userSpaceOnUse"
 gradientTransform="matrix(0.00161368,-5.1118689,5.1118659,0.00161023,-1197.5495,3196.3452)"
 cx="599.43182"
 cy="276.72781"
 fx="600.74774"
 fy="279.67035"
 r="9.5425152" />
<radialGradient
 inkscape:collect="always"
 xlink:href="#linearGradient4874"
 id="radialGradient7547"
 gradientUnits="userSpaceOnUse"
 gradientTransform="matrix(-0.50936954,-0.51970066,1.0000009,-0.98012191,-286.24529,2059.981)"
 cx="429.32458"
 cy="928.66302"
 fx="429.32458"
 fy="928.66302"
 r="16.970562" />
</defs>
<sodipodi:namedview
 id="base"
 pagecolor="#ffffff"
 bordercolor="#666666"
 borderopacity="1.0"
 inkscape:pageopacity="0.0"
 inkscape:pageshadow="2"
 inkscape:zoom="2"
 inkscape:cx="686.31922"
 inkscape:cy="755.29563"
 inkscape:document-units="px"
 inkscape:current-layer="layer1"
 showgrid="false"
 inkscape:window-width="1920"
 inkscape:window-height="1018"
 inkscape:window-x="-8"
 inkscape:window-y="-8"
 inkscape:window-maximized="1"
 inkscape:snap-object-midpoints="true"
 inkscape:snap-midpoints="true"
 inkscape:snap-smooth-nodes="true"
 inkscape:snap-bbox="true"
 inkscape:bbox-paths="true"
 inkscape:bbox-nodes="true"
 inkscape:snap-bbox-edge-midpoints="true"
 inkscape:snap-bbox-midpoints="true"
 inkscape:snap-nodes="true"
 inkscape:snap-global="false"
 showguides="true"
 inkscape:guide-bbox="true"
 inkscape:snap-center="false"
 inkscape:snap-grids="false"
 inkscape:object-nodes="true">
<inkscape:grid
 type="xygrid"
 id="grid4486" />
<sodipodi:guide
 orientation="0,1"
 position="262.86408,224.48361"
 id="guide4557" />
</sodipodi:namedview>
<metadata
 id="metadata7">
<rdf:RDF>
<cc:Work
 rdf:about="">
<dc:format>image/svg+xml</dc:format>
<dc:type
 rdf:resource="http://purl.org/dc/dcmitype/StillImage" />
<dc:title></dc:title>
</cc:Work>
</rdf:RDF>
</metadata>
<g
 inkscape:label="Layer 1"
 inkscape:groupmode="layer"
 id="layer1">
<rect
 style="fill:#9bc3c8;fill-opacity:0.55393054;stroke:none"
 id="rect5110"
 width="136.25"
 height="78.5"
 x="475.25"
 y="240.86218" />
<g
 id="g4472"
 transform="matrix(0.35819381,0,0,0.35819381,27.870401,-29.830828)">
<path
 transform="matrix(1.4600698,0,0,1.4600698,66.955204,-500.27264)"
 d="m 134.9739,433.43579 c 0,17.40995 -14.11355,31.52351 -31.52351,31.52351 -17.40995,0 -31.523506,-14.11356 -31.523506,-31.52351 0,-17.40995 14.113556,-31.52351 31.523506,-31.52351 17.40996,0 31.52351,14.11356 31.52351,31.52351 z"
 sodipodi:ry="31.52351"
 sodipodi:rx="31.52351"
 sodipodi:cy="433.43579"
 sodipodi:cx="103.45039"
 id="path4474"
 style="fill:#f0e060;stroke:#000000;stroke-width:1.67046809;stroke-miterlimit:4;stroke-dasharray:none;filter:url(#filter3193)"
 sodipodi:type="arc" />
<path
 style="fill:url(#radialGradient4478);fill-opacity:1;fill-rule:evenodd;stroke:#000000;stroke-width:1;stroke-miterlimit:4;stroke-dasharray:none"
 d="m 218,83.78125 c -26.93463,0 -48.78125,21.84667 -48.78125,48.78125 0,26.93463 21.84662,48.78125 48.78125,48.78125 26.93463,0 48.78125,-21.84662 48.78125,-48.78125 0,-26.93458 -21.84662,-48.78125 -48.78125,-48.78125 z m 0,4.375 c 24.52417,0 44.40625,19.88208 44.40625,44.40625 0,24.52417 -19.88208,44.40625 -44.40625,44.40625 -24.52417,0 -44.40625,-19.88208 -44.40625,-44.40625 0,-24.52417 19.88208,-44.40625 44.40625,-44.40625 z"
 id="path4476"
 inkscape:connector-curvature="0" />
</g>
<g
 transform="matrix(0.35819381,0,0,0.35819381,90.65571,-29.830828)"
 id="g4179">
<path
 sodipodi:type="arc"
 style="fill:#f0e060;stroke:#000000;stroke-width:1.67046809;stroke-miterlimit:4;stroke-dasharray:none;filter:url(#filter3193)"
 id="path4181"
 sodipodi:cx="103.45039"
 sodipodi:cy="433.43579"
 sodipodi:rx="31.52351"
 sodipodi:ry="31.52351"
 d="m 134.9739,433.43579 c 0,17.40995 -14.11355,31.52351 -31.52351,31.52351 -17.40995,0 -31.523506,-14.11356 -31.523506,-31.52351 0,-17.40995 14.113556,-31.52351 31.523506,-31.52351 17.40996,0 31.52351,14.11356 31.52351,31.52351 z"
 transform="matrix(1.4600698,0,0,1.4600698,66.955204,-500.27264)" />
<path
 inkscape:connector-curvature="0"
 id="path4183"
 d="m 218,83.78125 c -26.93463,0 -48.78125,21.84667 -48.78125,48.78125 0,26.93463 21.84662,48.78125 48.78125,48.78125 26.93463,0 48.78125,-21.84662 48.78125,-48.78125 0,-26.93458 -21.84662,-48.78125 -48.78125,-48.78125 z m 0,4.375 c 24.52417,0 44.40625,19.88208 44.40625,44.40625 0,24.52417 -19.88208,44.40625 -44.40625,44.40625 -24.52417,0 -44.40625,-19.88208 -44.40625,-44.40625 0,-24.52417 19.88208,-44.40625 44.40625,-44.40625 z"
 style="fill:url(#radialGradient4185);fill-opacity:1;fill-rule:evenodd;stroke:#000000;stroke-width:1;stroke-miterlimit:4;stroke-dasharray:none" />
</g>
<g
 id="g4159"
 transform="translate(-94.752307,-135.13631)">
<path
 transform="matrix(0.29201689,0,0,0.29201689,115.36662,18.565734)"
 d="m 134.9739,433.43579 c 0,17.40995 -14.11355,31.52351 -31.52351,31.52351 -17.40995,0 -31.523506,-14.11356 -31.523506,-31.52351 0,-17.40995 14.113556,-31.52351 31.523506,-31.52351 17.40996,0 31.52351,14.11356 31.52351,31.52351 z"
 sodipodi:ry="31.52351"
 sodipodi:rx="31.52351"
 sodipodi:cy="433.43579"
 sodipodi:cx="103.45039"
 id="path3230"
 style="fill:#f0e060;stroke:#340000;stroke-width:1.67046809;stroke-miterlimit:4;stroke-dasharray:none;filter:url(#filter3193)"
 sodipodi:type="arc" />
<path
 style="fill:url(#radialGradient4163);fill-opacity:1;fill-rule:evenodd;stroke:#340000;stroke-width:0.48780489;stroke-miterlimit:4;stroke-dasharray:none"
 d="m 145.57281,135.38021 c -5.38698,0 -9.75303,4.36605 -9.75303,9.75302 0,5.38698 4.36605,9.75918 9.75303,9.75918 5.38698,0 9.75917,-4.3722 9.75917,-9.75918 0,-5.38697 -4.37219,-9.75302 -9.75917,-9.75302 z m 0,1.95184 c 4.30959,0 7.80733,3.4916 7.80733,7.80118 0,4.30958 -3.49774,7.80734 -7.80733,7.80734 -4.30958,0 -7.80119,-3.49776 -7.80119,-7.80734 0,-4.30958 3.49161,-7.80118 7.80119,-7.80118 z"
 id="path3232"
 inkscape:connector-curvature="0" />
</g>
<g
 id="g4145"
 transform="translate(114.8555,-79.80925)">
<path
 sodipodi:type="arc"
 style="fill:#f0e060;stroke:#000000;stroke-width:1.67046809;stroke-miterlimit:4;stroke-dasharray:none;filter:url(#filter3193)"
 id="path4132"
 sodipodi:cx="103.45039"
 sodipodi:cy="433.43579"
 sodipodi:rx="31.52351"
 sodipodi:ry="31.52351"
 d="m 134.9739,433.43579 c 0,17.40995 -14.11355,31.52351 -31.52351,31.52351 -17.40995,0 -31.523506,-14.11356 -31.523506,-31.52351 0,-17.40995 14.113556,-31.52351 31.523506,-31.52351 17.40996,0 31.52351,14.11356 31.52351,31.52351 z"
 transform="matrix(1.4600698,0,0,1.4600698,66.955204,-500.27264)" />
<path
 id="path4134"
 d="m 218,83.78125 c -26.93463,0 -48.78125,21.84667 -48.78125,48.78125 0,26.93463 21.84662,48.78125 48.78125,48.78125 26.93463,0 48.78125,-21.84662 48.78125,-48.78125 0,-26.93458 -21.84662,-48.78125 -48.78125,-48.78125 z m 0,4.375 c 24.52417,0 44.40625,19.88208 44.40625,44.40625 0,24.52417 -19.88208,44.40625 -44.40625,44.40625 -24.52417,0 -44.40625,-19.88208 -44.40625,-44.40625 0,-24.52417 19.88208,-44.40625 44.40625,-44.40625 z"
 style="fill:url(#radialGradient4157);fill-opacity:1;fill-rule:evenodd;stroke:#000000;stroke-width:1;stroke-miterlimit:4;stroke-dasharray:none"
 inkscape:connector-curvature="0" />
</g>
<g
 id="g4149"
 transform="translate(240.89883,-79.80925)">
<path
 transform="matrix(1.4600698,0,0,1.4600698,66.955204,-500.27264)"
 d="m 134.9739,433.43579 c 0,17.40995 -14.11355,31.52351 -31.52351,31.52351 -17.40995,0 -31.523506,-14.11356 -31.523506,-31.52351 0,-17.40995 14.113556,-31.52351 31.523506,-31.52351 17.40996,0 31.52351,14.11356 31.52351,31.52351 z"
 sodipodi:ry="31.52351"
 sodipodi:rx="31.52351"
 sodipodi:cy="433.43579"
 sodipodi:cx="103.45039"
 id="path4151"
 style="fill:#f0e060;stroke:#000000;stroke-width:1.67046809;stroke-miterlimit:4;stroke-dasharray:none;filter:url(#filter3193)"
 sodipodi:type="arc" />
<path
 style="fill:url(#radialGradient4155);fill-opacity:1;fill-rule:evenodd;stroke:#000000;stroke-width:1;stroke-miterlimit:4;stroke-dasharray:none"
 d="m 218,83.78125 c -26.93463,0 -48.78125,21.84667 -48.78125,48.78125 0,26.93463 21.84662,48.78125 48.78125,48.78125 26.93463,0 48.78125,-21.84662 48.78125,-48.78125 0,-26.93458 -21.84662,-48.78125 -48.78125,-48.78125 z m 0,4.375 c 24.52417,0 44.40625,19.88208 44.40625,44.40625 0,24.52417 -19.88208,44.40625 -44.40625,44.40625 -24.52417,0 -44.40625,-19.88208 -44.40625,-44.40625 0,-24.52417 19.88208,-44.40625 44.40625,-44.40625 z"
 id="path4153"
 inkscape:connector-curvature="0" />
</g>
<g
 id="g4608"
 transform="translate(259.11976,-639.22453)">
<text
 sodipodi:linespacing="125%"
 id="text4171"
 y="652.02704"
 x="403.98444"
 style="font-size:22.92352295px;font-style:normal;font-variant:normal;font-weight:normal;font-stretch:normal;line-height:125%;letter-spacing:0px;word-spacing:0px;fill:#000000;fill-opacity:1;stroke:none;font-family:EngraversGothic BT;-inkscape-font-specification:EngraversGothic BT"
 xml:space="preserve"><tspan
 y="652.02704"
 x="403.98444"
 id="tspan4173"
 sodipodi:role="line">metal</tspan></text>
<text
 sodipodi:linespacing="125%"
 id="text4175"
 y="670.61993"
 x="379.83575"
 style="font-size:38.74835205px;font-style:normal;font-variant:normal;font-weight:normal;font-stretch:normal;line-height:125%;letter-spacing:0px;word-spacing:0px;fill:#000000;fill-opacity:1;stroke:none;font-family:Freehand521 BT;-inkscape-font-specification:Freehand521 BT"
 xml:space="preserve"><tspan
 y="670.61993"
 x="379.83575"
 id="tspan4177"
 sodipodi:role="line">Candy</tspan></text>
</g>
<g
 id="g4602"
 transform="translate(262.86976,-582.77995)">
<text
 xml:space="preserve"
 style="font-size:22.92352295px;font-style:normal;font-variant:normal;font-weight:normal;font-stretch:normal;line-height:125%;letter-spacing:0px;word-spacing:0px;fill:#000000;fill-opacity:1;stroke:none;font-family:EngraversGothic BT;-inkscape-font-specification:EngraversGothic BT"
 x="400.23444"
 y="697.77704"
 id="text4206"
 sodipodi:linespacing="125%"><tspan
 sodipodi:role="line"
 id="tspan4208"
 x="400.23444"
 y="697.77704">metal</tspan></text>
<text
 xml:space="preserve"
 style="font-size:38.74835205px;font-style:normal;font-variant:normal;font-weight:normal;font-stretch:normal;line-height:125%;letter-spacing:0px;word-spacing:0px;fill:url(#radialGradient4630);fill-opacity:1;stroke:none;font-family:Freehand521 BT;-inkscape-font-specification:Freehand521 BT"
 x="376.08575"
 y="716.36993"
 id="text4210"
 sodipodi:linespacing="125%"><tspan
 style="fill:url(#radialGradient4630);fill-opacity:1"
 sodipodi:role="line"
 id="tspan4212"
 x="376.08575"
 y="716.36993">Candy</tspan></text>
</g>
<g
 id="g4587"
 transform="translate(386.65636,-615.38487)">
<g
 id="g4559"
 transform="matrix(0.35819381,0,0,0.35819381,246.87358,791.93677)">
<path
 transform="matrix(1.4600698,0,0,1.4600698,66.955204,-500.27264)"
 d="m 134.9739,433.43579 c 0,17.40995 -14.11355,31.52351 -31.52351,31.52351 -17.40995,0 -31.523506,-14.11356 -31.523506,-31.52351 0,-17.40995 14.113556,-31.52351 31.523506,-31.52351 17.40996,0 31.52351,14.11356 31.52351,31.52351 z"
 sodipodi:ry="31.52351"
 sodipodi:rx="31.52351"
 sodipodi:cy="433.43579"
 sodipodi:cx="103.45039"
 id="path4561"
 style="fill:#f0e060;stroke:#000000;stroke-width:1.67046809;stroke-miterlimit:4;stroke-dasharray:none;filter:url(#filter3193)"
 sodipodi:type="arc" />
<path
 style="fill:url(#radialGradient4614);fill-opacity:1;fill-rule:evenodd;stroke:#000000;stroke-width:1;stroke-miterlimit:4;stroke-dasharray:none"
 d="m 218,83.78125 c -26.93463,0 -48.78125,21.84667 -48.78125,48.78125 0,26.93463 21.84662,48.78125 48.78125,48.78125 26.93463,0 48.78125,-21.84662 48.78125,-48.78125 0,-26.93458 -21.84662,-48.78125 -48.78125,-48.78125 z m 0,4.375 c 24.52417,0 44.40625,19.88208 44.40625,44.40625 0,24.52417 -19.88208,44.40625 -44.40625,44.40625 -24.52417,0 -44.40625,-19.88208 -44.40625,-44.40625 0,-24.52417 19.88208,-44.40625 44.40625,-44.40625 z"
 id="path4563"
 inkscape:connector-curvature="0" />
</g>
<g
 transform="translate(36.625,52.75)"
 id="g4530">
<g
 style="font-size:38.74835205px;font-style:normal;font-variant:normal;font-weight:normal;font-stretch:normal;line-height:125%;letter-spacing:0px;word-spacing:0px;fill:url(#radialGradient4626);fill-opacity:1;stroke:none;font-family:Freehand521 BT;-inkscape-font-specification:Freehand521 BT"
 id="text4488"
 transform="translate(-67.02558,50.061773)">
<path
 d="m 278.5259,763.64487 c -2.1695,-10e-6 -3.87862,-0.75996 -5.12734,-2.27987 -1.24873,-1.51992 -1.87309,-3.61059 -1.87309,-6.27201 0,-3.11551 0.81041,-6.65356 2.43123,-10.61417 1.62082,-3.96059 3.78086,-7.60586 6.48013,-10.93582 2.14427,-2.6614 4.35477,-4.73945 6.63149,-6.23417 2.27671,-1.49466 4.34215,-2.242 6.19634,-2.24203 1.51358,3e-5 2.68663,0.43204 3.51913,1.29603 0.83246,0.86404 1.2487,2.097 1.24873,3.69888 -3e-5,1.41272 -0.33428,2.76551 -1.00277,4.05836 -0.66853,1.29289 -1.63976,2.4817 -2.91369,3.56643 -0.7316,0.60546 -1.51993,1.11315 -2.36501,1.52307 -0.84512,0.40995 -1.49471,0.61492 -1.94877,0.61491 -0.35319,10e-6 -0.72529,-0.27433 -1.11629,-0.82303 -0.39103,-0.54867 -0.58653,-1.03743 -0.58652,-1.46631 -10e-6,-0.31531 0.40046,-0.62119 1.20143,-0.91762 0.80093,-0.2964 1.47259,-0.60858 2.01499,-0.93655 1.0595,-0.64326 1.87307,-1.4316 2.44069,-2.36501 0.56758,-0.93337 0.85138,-1.92982 0.8514,-2.98937 -2e-5,-0.71894 -0.14192,-1.26132 -0.4257,-1.62713 -0.28382,-0.36576 -0.70952,-0.54866 -1.27711,-0.54868 -1.08477,2e-5 -2.39656,0.66853 -3.93538,2.00553 -1.53884,1.33704 -3.14705,3.20382 -4.82462,5.60035 -2.44701,3.51915 -4.34847,6.99729 -5.70441,10.43443 -1.35594,3.43715 -2.03391,6.4549 -2.03391,9.05326 0,1.36225 0.24281,2.38708 0.72843,3.07452 0.48561,0.68742 1.20772,1.03114 2.16635,1.03114 1.27394,0 2.59204,-0.47616 3.9543,-1.42846 1.36223,-0.95232 2.73078,-2.36186 4.10566,-4.22865 0.22702,-0.2901 0.4856,-0.69373 0.77572,-1.21088 0.41623,-0.71896 0.78202,-1.07844 1.09737,-1.07845 0.35315,1e-5 0.74417,0.21443 1.17304,0.64329 0.42884,0.42885 0.64327,0.81987 0.64328,1.17304 -10e-6,0.2775 -0.1766,0.71897 -0.52976,1.32441 -0.35319,0.60544 -0.85142,1.3181 -1.49469,2.13797 -1.80372,2.27041 -3.59798,3.99844 -5.38276,5.1841 -1.78481,1.18566 -3.49077,1.77848 -5.11789,1.77849 z"
 style="fill:url(#radialGradient4616)"
 id="path4508"
 inkscape:connector-curvature="0" />
<path
 d="m 310.7279,740.71372 c -0.34057,-0.26487 -0.67798,-0.46037 -1.01222,-0.58652 -0.33427,-0.12612 -0.67168,-0.18919 -1.01223,-0.1892 -0.7442,10e-6 -1.59876,0.32165 -2.56367,0.96492 -0.96493,0.6433 -1.88886,1.51993 -2.77179,2.62989 -0.80727,1.0217 -1.4474,2.1033 -1.92039,3.2448 -0.47301,1.14152 -0.70951,2.14113 -0.70951,2.99883 0,0.61807 0.10721,1.0753 0.32164,1.37171 0.21443,0.29642 0.54238,0.44463 0.98385,0.44462 1.23611,10e-6 2.59204,-0.92077 4.06782,-2.76233 1.47576,-1.84155 3.01459,-4.54712 4.6165,-8.11672 z m -1.92985,7.17072 c -1.34964,2.39654 -2.68666,4.1498 -4.01106,5.25978 -1.32441,1.10998 -2.74342,1.66497 -4.25702,1.66497 -0.71896,0 -1.34648,-0.10091 -1.88255,-0.30272 -0.53607,-0.20182 -0.95546,-0.49823 -1.25818,-0.88925 -0.63067,0.34057 -1.34964,0.60229 -2.15689,0.78519 -0.80726,0.18289 -1.75326,0.29326 -2.83802,0.3311 l 0.75681,-2.55421 c 0.69373,-0.0378 1.31494,-0.12613 1.86362,-0.26488 0.54869,-0.13875 1.04376,-0.33426 1.48523,-0.58653 -0.0505,-0.26488 -0.0883,-0.53922 -0.11352,-0.82302 -0.0252,-0.2838 -0.0378,-0.58967 -0.0378,-0.91763 0,-1.0469 0.22704,-2.19157 0.68112,-3.43399 0.45409,-1.24241 1.09106,-2.46276 1.91093,-3.66104 1.26134,-1.81632 2.65827,-3.20064 4.19081,-4.15296 1.53251,-0.9523 3.11865,-1.42845 4.7584,-1.42847 0.81986,2e-5 1.52621,0.11985 2.11905,0.35948 0.59281,0.23967 1.15411,0.62438 1.68389,1.15413 l 0.26488,-0.85141 c 0.16396,-0.51713 0.32793,-0.84508 0.49192,-0.98384 0.16396,-0.13873 0.40361,-0.2081 0.71896,-0.20812 0.87031,2e-5 1.63027,0.14822 2.27988,0.44462 0.64957,0.29643 0.97436,0.64645 0.97438,1.05007 -2e-5,0.12615 -0.27121,0.71898 -0.81356,1.77848 -0.5424,1.05954 -1.02171,2.06861 -1.43793,3.02722 -0.8325,1.90463 -1.46002,3.53491 -1.88255,4.89084 -0.42256,1.35595 -0.63384,2.39971 -0.63382,3.13128 -2e-5,0.50454 0.15765,0.85456 0.473,1.05006 0.31532,0.19551 1.03428,0.34372 2.15689,0.44463 l -0.73788,2.53529 -0.34056,0 c -1.98032,0 -3.3741,-0.20812 -4.18135,-0.62436 -0.80726,-0.41625 -1.21089,-1.12259 -1.21088,-2.11905 -1e-5,-0.44147 0.0757,-0.98385 0.22704,-1.62713 0.15135,-0.64328 0.40362,-1.46946 0.7568,-2.47853 z"
 style="fill:url(#radialGradient4618)"
 id="path4510"
 inkscape:connector-curvature="0" />
<path
 d="m 318.03106,752.87934 c -0.55499,0.5676 -1.20143,1.00592 -1.93931,1.31495 -0.73788,0.30902 -1.57352,0.48877 -2.50691,0.53922 l 0.71896,-2.55421 c 1.32441,-0.0504 2.447,-0.67166 3.36778,-1.86363 0.92077,-1.19196 1.75956,-3.11235 2.51637,-5.76117 0.36578,-1.27394 0.74419,-2.78755 1.1352,-4.54082 0.50454,-2.34608 1.30549,-3.51912 2.40286,-3.51914 0.99645,2e-5 1.7028,0.0568 2.11905,0.17028 0.41623,0.11354 0.62435,0.31535 0.62436,0.60544 -1e-5,0.21445 -0.39102,1.29289 -1.17305,3.23534 -0.78203,1.94247 -1.47577,3.82187 -2.08121,5.63819 1.96769,-3.19118 3.76825,-5.5215 5.40169,-6.99098 1.63342,-1.46944 3.23217,-2.20417 4.79624,-2.20419 0.79463,2e-5 1.41269,0.21129 1.85417,0.63382 0.44145,0.42257 0.66219,1.01225 0.66221,1.76903 -2e-5,0.85773 -0.7316,3.0966 -2.19473,6.71664 l -0.47301,1.19196 c -0.31535,0.76943 -0.56446,1.48524 -0.74734,2.14743 -0.18291,0.66221 -0.27436,1.13206 -0.27434,1.40955 -2e-5,0.4667 0.17657,0.79465 0.52976,0.98384 0.35316,0.18921 1.0532,0.31534 2.10013,0.37841 l -0.71896,2.55421 -0.43516,0 c -2.06862,0 -3.58537,-0.2775 -4.55029,-0.83248 -0.96493,-0.55499 -1.44739,-1.42532 -1.44738,-2.61098 -10e-6,-0.54237 0.18288,-1.37485 0.54868,-2.49745 0.36578,-1.12259 0.92076,-2.5542 1.66497,-4.29486 l 0.15136,-0.35948 c 0.64327,-1.45053 0.96491,-2.30824 0.96492,-2.57314 -1e-5,-0.21441 -0.0536,-0.37208 -0.16082,-0.473 -0.10723,-0.10089 -0.27435,-0.15135 -0.50138,-0.15136 -0.7442,1e-5 -1.89517,0.94602 -3.45292,2.83801 -1.55776,1.89202 -2.92316,4.18766 -4.0962,6.88692 -0.23966,0.54238 -0.49823,1.20458 -0.77572,1.98661 -0.52977,1.43793 -1.56407,2.15689 -3.1029,2.15689 -0.50453,0 -0.85771,-0.0473 -1.05952,-0.1419 -0.20182,-0.0946 -0.30272,-0.26173 -0.30272,-0.50138 0,-0.12614 0.0347,-0.29326 0.10406,-0.50139 0.0694,-0.20812 0.17974,-0.46984 0.3311,-0.78518 z"
 style="fill:url(#radialGradient4620)"
 id="path4512"
 inkscape:connector-curvature="0" />
<path
 d="m 334.1699,754.73351 0.73789,-2.55421 c 0.69374,-0.0378 1.31495,-0.12613 1.86363,-0.26488 0.54868,-0.13875 1.04376,-0.33426 1.48522,-0.58653 -0.0631,-0.2901 -0.11036,-0.58967 -0.1419,-0.8987 -0.0315,-0.30903 -0.0473,-0.65274 -0.0473,-1.03115 0,-1.45053 0.2775,-2.89476 0.83249,-4.3327 0.55499,-1.43791 1.33701,-2.74971 2.34609,-3.93538 1.23611,-1.45052 2.55421,-2.54789 3.9543,-3.29209 1.40008,-0.74418 2.84431,-1.11627 4.3327,-1.11629 0.59282,2e-5 1.16042,0.0725 1.70281,0.21758 0.54236,0.14507 1.10996,0.36896 1.70281,0.67166 l 2.95153,-8.17348 c 0.0883,-0.23963 0.2081,-0.58649 0.35948,-1.0406 0.70633,-2.04334 1.68387,-3.06503 2.93262,-3.06506 1.00905,3e-5 1.72801,0.10094 2.15689,0.30273 0.42883,0.20184 0.64326,0.5424 0.64328,1.02168 -2e-5,0.22707 -0.18292,0.7253 -0.54868,1.49469 -0.23968,0.49195 -0.42257,0.88296 -0.54868,1.17304 l -3.40562,7.87076 c -1.24875,2.86326 -2.27043,5.56883 -3.06506,8.11672 -0.79466,2.54792 -1.19198,4.19396 -1.19196,4.93815 -2e-5,0.66851 0.19234,1.14151 0.57706,1.419 0.38469,0.2775 1.13204,0.45409 2.24203,0.52977 l -0.73788,2.53529 -0.34056,0 c -1.98032,0 -3.3741,-0.20812 -4.18134,-0.62436 -0.80727,-0.41625 -1.2109,-1.12259 -1.21089,-2.11905 -10e-6,-0.44147 0.0757,-0.98385 0.22704,-1.62713 0.15135,-0.64328 0.40362,-1.46946 0.7568,-2.47853 -1.29919,2.33348 -2.61413,4.07097 -3.94483,5.21248 -1.33073,1.14151 -2.72135,1.71227 -4.17189,1.71227 -0.71896,0 -1.36855,-0.12298 -1.94876,-0.36894 -0.58022,-0.24596 -1.00277,-0.57076 -1.26765,-0.97439 -0.50454,0.36579 -1.16674,0.65275 -1.98661,0.86087 -0.81987,0.20812 -1.84155,0.34371 -3.06506,0.40678 z m 17.76597,-14.45495 c -0.22705,-0.1009 -0.44779,-0.17658 -0.6622,-0.22704 -0.21444,-0.0504 -0.42887,-0.0757 -0.64328,-0.0757 -0.90818,10e-6 -1.8258,0.30273 -2.75288,0.90816 -0.92709,0.60546 -1.85733,1.50731 -2.79071,2.70557 -0.80727,1.0217 -1.46316,2.11276 -1.96769,3.27318 -0.50454,1.16044 -0.75681,2.11906 -0.75681,2.87585 0,0.56761 0.13875,1.01854 0.41625,1.35279 0.27749,0.33426 0.64327,0.50139 1.09736,0.50138 1.09736,10e-6 2.34293,-0.97753 3.73672,-2.93261 1.39377,-1.95507 2.83485,-4.74893 4.32324,-8.3816 z"
 style="fill:url(#radialGradient4622)"
 id="path4514"
 inkscape:connector-curvature="0" />
<path
 d="m 360.96076,753.20098 c -0.95862,0.44147 -1.91093,0.79465 -2.85694,1.05953 -0.946,0.26488 -1.86047,0.42255 -2.74341,0.473 l 0.73788,-2.55421 c 0.75681,-0.0378 1.47893,-0.15767 2.16635,-0.35949 0.68743,-0.20181 1.3654,-0.49191 2.03391,-0.87032 0.0252,-1.21088 0.19551,-2.51952 0.51085,-3.92592 0.31533,-1.40638 0.81987,-3.0682 1.5136,-4.98544 0.8451,-2.28301 1.47892,-3.75878 1.90147,-4.42731 0.42255,-0.66849 0.86086,-1.00274 1.31495,-1.00276 0.98384,2e-5 1.72803,0.11669 2.23257,0.35002 0.50453,0.23337 0.7568,0.58339 0.7568,1.05007 0,0.26489 -0.27119,0.96809 -0.81356,2.10959 -0.54238,1.14152 -0.95862,2.06545 -1.24873,2.77179 -0.68113,1.63975 -1.16043,2.97362 -1.43792,4.0016 -0.2775,1.028 -0.41625,1.93932 -0.41624,2.73395 -1e-5,0.47932 0.0977,0.8388 0.29326,1.07845 0.1955,0.23966 0.49507,0.35948 0.8987,0.35948 0.93339,0 2.00237,-0.70004 3.20696,-2.10013 1.20457,-1.40008 2.3177,-3.26055 3.33939,-5.58143 0.50453,-1.12258 0.99645,-2.47221 1.47577,-4.0489 0.50452,-1.69018 1.13519,-2.53527 1.89201,-2.53529 0.75679,2e-5 1.40638,0.13561 1.94877,0.40678 0.54236,0.27121 0.81355,0.61492 0.81356,1.03115 -10e-6,0.23967 -0.15138,0.71267 -0.45408,1.419 -0.22706,0.51717 -0.39734,0.93341 -0.51084,1.24873 l -4.27594,11.78722 c 0.68111,-0.15136 1.86677,-0.30903 3.55698,-0.473 0.15134,-0.0126 0.27117,-0.0252 0.35948,-0.0378 l -0.73789,2.55421 c -1.17306,0.11352 -2.06545,0.22389 -2.67719,0.3311 -0.61176,0.10721 -1.15098,0.23019 -1.61767,0.36894 -0.85772,3.03983 -1.8258,5.29762 -2.90423,6.7734 -1.07846,1.47575 -2.29249,2.21364 -3.64212,2.21365 -0.6559,-1e-5 -1.15728,-0.16399 -1.50415,-0.49193 -0.34687,-0.32795 -0.5203,-0.80726 -0.5203,-1.43792 0,-1.17305 0.45092,-2.33349 1.35279,-3.4813 0.90185,-1.14782 2.10958,-2.0686 3.62319,-2.76233 0.61805,-1.52622 1.19196,-2.99253 1.72173,-4.39893 0.52975,-1.40638 1.02798,-2.77809 1.49469,-4.11512 -1.33703,2.44701 -2.64882,4.23811 -3.93538,5.37331 -1.28657,1.13521 -2.6362,1.70281 -4.0489,1.70281 -0.63067,0 -1.21089,-0.15136 -1.74065,-0.45408 -0.52976,-0.30272 -0.88294,-0.68743 -1.05952,-1.15413 z"
 style="fill:url(#radialGradient4624)"
 id="path4516"
 inkscape:connector-curvature="0" />
</g>
<path
 style="font-size:38.74835205px;font-style:normal;font-variant:normal;font-weight:normal;font-stretch:normal;line-height:125%;letter-spacing:0px;word-spacing:0px;fill:url(#radialGradient4628);fill-opacity:1;stroke:none;filter:url(#filter4308);font-family:Freehand521 BT;-inkscape-font-specification:Freehand521 BT"
 d="m 310.24125,791.63562 c -1.41138,0.0185 -2.81598,0.069 -4.21875,0.0937 -0.22565,0.60898 -0.45656,1.17366 -0.6875,1.6875 -1.0217,2.32087 -2.13918,4.19367 -3.34375,5.59375 -1.20458,1.40009 -2.25411,2.09375 -3.1875,2.09375 -0.40363,0 -0.71074,-0.10409 -0.90625,-0.34375 -0.19551,-0.23965 -0.31251,-0.61444 -0.3125,-1.09375 -10e-6,-0.79464 0.16001,-1.69075 0.4375,-2.71875 0.2775,-1.02798 0.75638,-2.36025 1.4375,-4 0.11712,-0.28518 0.34176,-0.76889 0.5,-1.125 -1.53323,0.0371 -3.07201,0.0805 -4.59375,0.125 -0.0192,0.0516 -0.0431,0.0725 -0.0625,0.125 -0.69373,1.91725 -1.18467,3.59362 -1.5,5 -0.31534,1.4064 -0.50601,2.72662 -0.53125,3.9375 -0.66851,0.37841 -1.34381,0.64194 -2.03125,0.84375 -0.68742,0.20182 -1.39944,0.33716 -2.15625,0.375 l -0.75,2.5625 c 0.88295,-0.0504 1.804,-0.20387 2.75,-0.46875 0.946,-0.26488 1.91638,-0.62103 2.875,-1.0625 0.17659,0.4667 0.53274,0.85353 1.0625,1.15625 0.52976,0.30272 1.08808,0.4375 1.71875,0.4375 1.41269,0 2.77593,-0.55229 4.0625,-1.6875 1.28656,-1.1352 2.60047,-2.928 3.9375,-5.375 -0.4667,1.33703 -0.97024,2.68736 -1.5,4.09375 -0.52977,1.40639 -1.10069,2.88003 -1.71875,4.40625 -1.51361,0.69373 -2.72314,1.63343 -3.625,2.78125 -0.90185,1.14781 -1.34375,2.2957 -1.34375,3.46875 0,0.63066 0.15313,1.10954 0.5,1.4375 0.34686,0.32794 0.8441,0.49999 1.5,0.5 1.34964,-10e-6 2.5778,-0.74299 3.65625,-2.21875 1.07843,-1.47577 2.04853,-3.74143 2.90625,-6.78125 0.46668,-0.13875 1.01324,-0.26779 1.625,-0.375 0.61174,-0.10721 1.4832,-0.19898 2.65625,-0.3125 l 0.75,-2.5625 c -0.0883,0.0126 -0.22366,0.0186 -0.375,0.0312 -1.69021,0.16398 -2.85014,0.31739 -3.53125,0.46875 l 4,-11.09375 z m -21.75,0.53125 c -1.48371,0.0549 -2.96609,0.12563 -4.4375,0.1875 -1.17932,2.64901 -2.35034,4.77494 -3.46875,6.34375 -1.39379,1.95508 -2.62139,2.9375 -3.71875,2.9375 -0.45408,0 -0.81625,-0.16574 -1.09375,-0.5 -0.27749,-0.33425 -0.4375,-0.77614 -0.4375,-1.34375 0,-0.7568 0.27671,-1.71456 0.78125,-2.875 0.50454,-1.16042 1.1615,-2.25956 1.96875,-3.28125 0.30084,-0.38621 0.57482,-0.73787 0.875,-1.0625 -1.99914,0.0959 -3.99471,0.20382 -5.96875,0.3125 -0.43251,0.70337 -0.79383,1.44172 -1.09375,2.21875 -0.55499,1.43794 -0.84375,2.89322 -0.84375,4.34375 0,0.37841 0.031,0.72223 0.0625,1.03125 0.0315,0.30903 0.0619,0.61615 0.125,0.90625 -0.44147,0.25227 -0.92007,0.42376 -1.46875,0.5625 -0.54868,0.13875 -1.18125,0.24341 -1.875,0.28125 l -0.75,2.5625 c 1.22351,-0.0631 2.24264,-0.19813 3.0625,-0.40625 0.81988,-0.20812 1.49546,-0.50921 2,-0.875 0.26489,0.40363 0.70104,0.72279 1.28125,0.96875 0.58022,0.24596 1.21853,0.375 1.9375,0.375 1.45054,0 2.82554,-0.57724 4.15625,-1.71875 1.3307,-1.14151 2.66957,-2.85402 3.96875,-5.1875 -0.35318,1.00908 -0.6299,1.82547 -0.78125,2.46875 -0.15136,0.64329 -0.21876,1.18353 -0.21875,1.625 -10e-6,0.99646 0.41148,1.70876 1.21875,2.125 0.80724,0.41624 2.20718,0.625 4.1875,0.625 l 0.34375,0 0.71875,-2.53125 c -1.11,-0.0757 -1.86531,-0.25375 -2.25,-0.53125 -0.38472,-0.27749 -0.56251,-0.76899 -0.5625,-1.4375 -10e-6,-0.74419 0.39284,-2.38959 1.1875,-4.9375 0.32245,-1.03389 0.69654,-2.10168 1.09375,-3.1875 z m -21.34375,12.625 0.71875,-2.5625 c -1.04693,-0.0631 -1.74059,-0.1858 -2.09375,-0.375 -0.35318,-0.1892 -0.53126,-0.5333 -0.53125,-1 -10e-6,-0.27749 0.0671,-0.74404 0.25,-1.40625 0.18289,-0.6622 0.43465,-1.35558 0.75,-2.125 l 0.46875,-1.21875 c 0.45369,-1.12248 0.812,-2.04936 1.125,-2.90625 -1.50023,0.092 -2.98452,0.18192 -4.46875,0.28125 -0.10443,0.24652 -0.15005,0.42291 -0.28125,0.71875 l -0.15625,0.34375 c -0.7442,1.74066 -1.32172,3.18991 -1.6875,4.3125 -0.36579,1.1226 -0.53126,1.95763 -0.53125,2.5 -10e-6,1.18566 0.47257,2.03876 1.4375,2.59375 0.96491,0.55499 2.4939,0.84375 4.5625,0.84375 l 0.4375,0 z m -7.125,-11.0625 c -0.76702,0.0546 -1.55004,0.0997 -2.3125,0.15625 -0.48771,0.71167 -0.98982,1.48509 -1.5,2.3125 0.24481,-0.73444 0.50756,-1.49493 0.78125,-2.25 -1.25456,0.0942 -2.4769,0.18179 -3.71875,0.28125 -0.0328,0.11736 -0.0611,0.26145 -0.0937,0.375 -0.75681,2.64882 -1.61047,4.55804 -2.53125,5.75 -0.92077,1.19197 -2.01934,1.82455 -3.34375,1.875 l -0.71875,2.5625 c 0.93339,-0.0504 1.76212,-0.25347 2.5,-0.5625 0.73788,-0.30903 1.38251,-0.7449 1.9375,-1.3125 -0.15136,0.31534 -0.27437,0.57313 -0.34375,0.78125 -0.0694,0.20812 -0.0937,0.40512 -0.0937,0.53125 0,0.23965 0.11069,0.4054 0.3125,0.5 0.20181,0.0946 0.55796,0.125 1.0625,0.125 1.53884,0 2.56398,-0.71832 3.09375,-2.15625 0.27749,-0.78203 0.54159,-1.42637 0.78125,-1.96875 1.17304,-2.69926 2.536,-5.01423 4.09375,-6.90625 0.031,-0.0377 0.0631,-0.0568 0.0937,-0.0937 z m -13.75,1.09375 c -1.60037,0.14361 -3.20456,0.28521 -4.78125,0.4375 -0.81026,1.44473 -1.63081,2.65737 -2.40625,3.625 -1.47577,1.84156 -2.82639,2.75 -4.0625,2.75 -0.44147,0 -0.75433,-0.14108 -0.96875,-0.4375 -0.21442,-0.29641 -0.3125,-0.75694 -0.3125,-1.375 0,-0.85771 0.2145,-1.85848 0.6875,-3 0.12367,-0.29847 0.29097,-0.58472 0.4375,-0.875 -1.6608,0.17702 -3.3063,0.34459 -4.9375,0.53125 -0.38659,1.13243 -0.59375,2.19028 -0.59375,3.15625 0,0.32795 0.006,0.62245 0.0312,0.90625 0.0252,0.28381 0.0745,0.57887 0.125,0.84375 -0.44148,0.25227 -0.95133,0.42376 -1.5,0.5625 -0.54868,0.13875 -1.15002,0.24341 -1.84375,0.28125 l -0.75,2.5625 c 1.08475,-0.0378 2.00523,-0.16086 2.8125,-0.34375 0.80726,-0.18289 1.52557,-0.44069 2.15625,-0.78125 0.30271,0.39102 0.74518,0.67319 1.28125,0.875 0.53607,0.20181 1.15602,0.3125 1.875,0.3125 1.5136,0 2.92559,-0.54627 4.25,-1.65625 1.3244,-1.10998 2.65035,-2.85345 4,-5.25 -0.35319,1.00908 -0.59866,1.82547 -0.75,2.46875 -0.15137,0.64329 -0.21876,1.18353 -0.21875,1.625 -1e-5,0.99646 0.41147,1.70876 1.21875,2.125 0.80723,0.41624 2.17592,0.625 4.15625,0.625 l 0.34375,0 0.75,-2.53125 c -1.12262,-0.1009 -1.84094,-0.27324 -2.15625,-0.46875 -0.31536,-0.1955 -0.46878,-0.52671 -0.46875,-1.03125 -3e-5,-0.73157 0.20244,-1.76905 0.625,-3.125 0.25564,-0.82038 0.59428,-1.79126 1,-2.8125 z m -35.8125,4.21875 c -1.79249,0.26859 -3.53798,0.53152 -5.28125,0.8125 -0.45199,1.88089 -0.65625,3.63603 -0.65625,5.28125 0,2.66142 0.62629,4.76133 1.875,6.28125 1.24872,1.51991 2.95549,2.28124 5.125,2.28125 1.62712,-10e-6 3.30896,-0.5956 5.09375,-1.78125 1.78479,-1.18567 3.60252,-2.91709 5.40625,-5.1875 0.64327,-0.81987 1.14681,-1.51956 1.5,-2.125 0.35316,-0.60544 0.53123,-1.06625 0.53125,-1.34375 -2e-5,-0.35317 -0.2274,-0.72739 -0.65625,-1.15625 -0.42886,-0.42885 -0.83434,-0.65625 -1.1875,-0.65625 -0.31535,0 -0.67751,0.37479 -1.09375,1.09375 -0.29012,0.51715 -0.55421,0.89739 -0.78125,1.1875 -1.37486,1.86678 -2.73151,3.29769 -4.09375,4.25 -1.36225,0.95231 -2.66354,1.40625 -3.9375,1.40625 -0.95862,0 -1.70188,-0.34382 -2.1875,-1.03125 -0.48562,-0.68743 -0.71875,-1.70026 -0.71875,-3.0625 0,-1.86368 0.36493,-3.9548 1.0625,-6.25 z"
 id="text4449"
 inkscape:connector-curvature="0" />
</g>
<text
 sodipodi:linespacing="125%"
 id="text4553"
 y="836.32312"
 x="270.69507"
 style="font-size:19.61592484px;font-style:normal;font-variant:normal;font-weight:normal;font-stretch:normal;line-height:125%;letter-spacing:0px;word-spacing:0px;fill:#000000;fill-opacity:1;stroke:none;font-family:EngraversGothic BT;-inkscape-font-specification:EngraversGothic BT"
 xml:space="preserve"><tspan
 y="836.32312"
 x="270.69507"
 id="tspan4555"
 sodipodi:role="line">metal</tspan></text>
</g>
<g
 id="g4948"
 transform="translate(216.54133,-522.19836)"
 inkscape:export-filename="C:\Users\Benjamin\MetalCandy\Branding\InkScape\alphalogosmall.png"
 inkscape:export-xdpi="211.41002"
 inkscape:export-ydpi="211.41002">
<g
 id="g5034">
<g
 transform="translate(39.75,-44.5)"
 id="g4995">
<g
 style="opacity:0.5"
 transform="translate(-51.267059,-59.43824)"
 id="g4882">
<g
 id="g4634"
 transform="matrix(0.35510463,0,0,0.35510463,378.22731,917.48576)">
<path
 transform="matrix(1.4600698,0,0,1.4600698,66.955204,-500.27264)"
 d="m 134.9739,433.43579 c 0,17.40995 -14.11355,31.52351 -31.52351,31.52351 -17.40995,0 -31.523506,-14.11356 -31.523506,-31.52351 0,-17.40995 14.113556,-31.52351 31.523506,-31.52351 17.40996,0 31.52351,14.11356 31.52351,31.52351 z"
 sodipodi:ry="31.52351"
 sodipodi:rx="31.52351"
 sodipodi:cy="433.43579"
 sodipodi:cx="103.45039"
 id="path4636"
 style="fill:#f0e060;stroke:#000000;stroke-width:1.67046809;stroke-miterlimit:4;stroke-dasharray:none;filter:url(#filter3193)"
 sodipodi:type="arc" />
<path
 style="fill:url(#radialGradient5054);fill-opacity:1;fill-rule:evenodd;stroke:#000000;stroke-width:1;stroke-miterlimit:4;stroke-dasharray:none"
 d="m 218,83.78125 c -26.93463,0 -48.78125,21.84667 -48.78125,48.78125 0,26.93463 21.84662,48.78125 48.78125,48.78125 26.93463,0 48.78125,-21.84662 48.78125,-48.78125 0,-26.93458 -21.84662,-48.78125 -48.78125,-48.78125 z m 0,4.375 c 24.52417,0 44.40625,19.88208 44.40625,44.40625 0,24.52417 -19.88208,44.40625 -44.40625,44.40625 -24.52417,0 -44.40625,-19.88208 -44.40625,-44.40625 0,-24.52417 19.88208,-44.40625 44.40625,-44.40625 z"
 id="path4638"
 inkscape:connector-curvature="0" />
</g>
<path
 sodipodi:type="arc"
 style="fill:url(#radialGradient5056);fill-opacity:1;stroke:none;filter:url(#filter4308)"
 id="path4872"
 sodipodi:cx="423.73373"
 sodipodi:cy="926.32037"
 sodipodi:rx="16.970562"
 sodipodi:ry="16.970562"
 d="m 440.7043,926.32037 c 0,9.37259 -7.59798,16.97057 -16.97057,16.97057 -9.37258,0 -16.97056,-7.59798 -16.97056,-16.97057 0,-9.37258 7.59798,-16.97056 16.97056,-16.97056 9.37259,0 16.97057,7.59798 16.97057,16.97056 z"
 transform="matrix(1.0311974,0,0,1.0311974,18.686994,8.9962484)" />
</g>
<text
 xml:space="preserve"
 style="font-size:19.61592484px;font-style:normal;font-variant:normal;font-weight:normal;font-stretch:normal;line-height:125%;letter-spacing:0px;word-spacing:0px;fill:#000000;fill-opacity:1;stroke:none;font-family:EngraversGothic BT;-inkscape-font-specification:EngraversGothic BT"
 x="401.06009"
 y="893.04138"
 id="text4745"
 sodipodi:linespacing="125%"><tspan
 sodipodi:role="line"
 id="tspan4747"
 x="401.06009"
 y="893.04138">metal</tspan></text>
<g
 id="g4921">
<g
 transform="translate(99.96445,159.53001)"
 id="g4731"
 style="font-size:38.74835205px;font-style:normal;font-variant:normal;font-weight:normal;font-stretch:normal;line-height:125%;letter-spacing:0px;word-spacing:0px;fill:url(#radialGradient5068);fill-opacity:1;stroke:none;font-family:Freehand521 BT;-inkscape-font-specification:Freehand521 BT">
<path
 inkscape:connector-curvature="0"
 id="path4733"
 style="fill:url(#radialGradient5058)"
 d="m 278.5259,763.64487 c -2.1695,-10e-6 -3.87862,-0.75996 -5.12734,-2.27987 -1.24873,-1.51992 -1.87309,-3.61059 -1.87309,-6.27201 0,-3.11551 0.81041,-6.65356 2.43123,-10.61417 1.62082,-3.96059 3.78086,-7.60586 6.48013,-10.93582 2.14427,-2.6614 4.35477,-4.73945 6.63149,-6.23417 2.27671,-1.49466 4.34215,-2.242 6.19634,-2.24203 1.51358,3e-5 2.68663,0.43204 3.51913,1.29603 0.83246,0.86404 1.2487,2.097 1.24873,3.69888 -3e-5,1.41272 -0.33428,2.76551 -1.00277,4.05836 -0.66853,1.29289 -1.63976,2.4817 -2.91369,3.56643 -0.7316,0.60546 -1.51993,1.11315 -2.36501,1.52307 -0.84512,0.40995 -1.49471,0.61492 -1.94877,0.61491 -0.35319,10e-6 -0.72529,-0.27433 -1.11629,-0.82303 -0.39103,-0.54867 -0.58653,-1.03743 -0.58652,-1.46631 -10e-6,-0.31531 0.40046,-0.62119 1.20143,-0.91762 0.80093,-0.2964 1.47259,-0.60858 2.01499,-0.93655 1.0595,-0.64326 1.87307,-1.4316 2.44069,-2.36501 0.56758,-0.93337 0.85138,-1.92982 0.8514,-2.98937 -2e-5,-0.71894 -0.14192,-1.26132 -0.4257,-1.62713 -0.28382,-0.36576 -0.70952,-0.54866 -1.27711,-0.54868 -1.08477,2e-5 -2.39656,0.66853 -3.93538,2.00553 -1.53884,1.33704 -3.14705,3.20382 -4.82462,5.60035 -2.44701,3.51915 -4.34847,6.99729 -5.70441,10.43443 -1.35594,3.43715 -2.03391,6.4549 -2.03391,9.05326 0,1.36225 0.24281,2.38708 0.72843,3.07452 0.48561,0.68742 1.20772,1.03114 2.16635,1.03114 1.27394,0 2.59204,-0.47616 3.9543,-1.42846 1.36223,-0.95232 2.73078,-2.36186 4.10566,-4.22865 0.22702,-0.2901 0.4856,-0.69373 0.77572,-1.21088 0.41623,-0.71896 0.78202,-1.07844 1.09737,-1.07845 0.35315,1e-5 0.74417,0.21443 1.17304,0.64329 0.42884,0.42885 0.64327,0.81987 0.64328,1.17304 -10e-6,0.2775 -0.1766,0.71897 -0.52976,1.32441 -0.35319,0.60544 -0.85142,1.3181 -1.49469,2.13797 -1.80372,2.27041 -3.59798,3.99844 -5.38276,5.1841 -1.78481,1.18566 -3.49077,1.77848 -5.11789,1.77849 z" />
<path
 inkscape:connector-curvature="0"
 id="path4735"
 style="fill:url(#radialGradient5060)"
 d="m 310.7279,740.71372 c -0.34057,-0.26487 -0.67798,-0.46037 -1.01222,-0.58652 -0.33427,-0.12612 -0.67168,-0.18919 -1.01223,-0.1892 -0.7442,10e-6 -1.59876,0.32165 -2.56367,0.96492 -0.96493,0.6433 -1.88886,1.51993 -2.77179,2.62989 -0.80727,1.0217 -1.4474,2.1033 -1.92039,3.2448 -0.47301,1.14152 -0.70951,2.14113 -0.70951,2.99883 0,0.61807 0.10721,1.0753 0.32164,1.37171 0.21443,0.29642 0.54238,0.44463 0.98385,0.44462 1.23611,10e-6 2.59204,-0.92077 4.06782,-2.76233 1.47576,-1.84155 3.01459,-4.54712 4.6165,-8.11672 z m -1.92985,7.17072 c -1.34964,2.39654 -2.68666,4.1498 -4.01106,5.25978 -1.32441,1.10998 -2.74342,1.66497 -4.25702,1.66497 -0.71896,0 -1.34648,-0.10091 -1.88255,-0.30272 -0.53607,-0.20182 -0.95546,-0.49823 -1.25818,-0.88925 -0.63067,0.34057 -1.34964,0.60229 -2.15689,0.78519 -0.80726,0.18289 -1.75326,0.29326 -2.83802,0.3311 l 0.75681,-2.55421 c 0.69373,-0.0378 1.31494,-0.12613 1.86362,-0.26488 0.54869,-0.13875 1.04376,-0.33426 1.48523,-0.58653 -0.0505,-0.26488 -0.0883,-0.53922 -0.11352,-0.82302 -0.0252,-0.2838 -0.0378,-0.58967 -0.0378,-0.91763 0,-1.0469 0.22704,-2.19157 0.68112,-3.43399 0.45409,-1.24241 1.09106,-2.46276 1.91093,-3.66104 1.26134,-1.81632 2.65827,-3.20064 4.19081,-4.15296 1.53251,-0.9523 3.11865,-1.42845 4.7584,-1.42847 0.81986,2e-5 1.52621,0.11985 2.11905,0.35948 0.59281,0.23967 1.15411,0.62438 1.68389,1.15413 l 0.26488,-0.85141 c 0.16396,-0.51713 0.32793,-0.84508 0.49192,-0.98384 0.16396,-0.13873 0.40361,-0.2081 0.71896,-0.20812 0.87031,2e-5 1.63027,0.14822 2.27988,0.44462 0.64957,0.29643 0.97436,0.64645 0.97438,1.05007 -2e-5,0.12615 -0.27121,0.71898 -0.81356,1.77848 -0.5424,1.05954 -1.02171,2.06861 -1.43793,3.02722 -0.8325,1.90463 -1.46002,3.53491 -1.88255,4.89084 -0.42256,1.35595 -0.63384,2.39971 -0.63382,3.13128 -2e-5,0.50454 0.15765,0.85456 0.473,1.05006 0.31532,0.19551 1.03428,0.34372 2.15689,0.44463 l -0.73788,2.53529 -0.34056,0 c -1.98032,0 -3.3741,-0.20812 -4.18135,-0.62436 -0.80726,-0.41625 -1.21089,-1.12259 -1.21088,-2.11905 -1e-5,-0.44147 0.0757,-0.98385 0.22704,-1.62713 0.15135,-0.64328 0.40362,-1.46946 0.7568,-2.47853 z" />
<path
 inkscape:connector-curvature="0"
 id="path4737"
 style="fill:url(#radialGradient5062)"
 d="m 318.03106,752.87934 c -0.55499,0.5676 -1.20143,1.00592 -1.93931,1.31495 -0.73788,0.30902 -1.57352,0.48877 -2.50691,0.53922 l 0.71896,-2.55421 c 1.32441,-0.0504 2.447,-0.67166 3.36778,-1.86363 0.92077,-1.19196 1.75956,-3.11235 2.51637,-5.76117 0.36578,-1.27394 0.74419,-2.78755 1.1352,-4.54082 0.50454,-2.34608 1.30549,-3.51912 2.40286,-3.51914 0.99645,2e-5 1.7028,0.0568 2.11905,0.17028 0.41623,0.11354 0.62435,0.31535 0.62436,0.60544 -1e-5,0.21445 -0.39102,1.29289 -1.17305,3.23534 -0.78203,1.94247 -1.47577,3.82187 -2.08121,5.63819 1.96769,-3.19118 3.76825,-5.5215 5.40169,-6.99098 1.63342,-1.46944 3.23217,-2.20417 4.79624,-2.20419 0.79463,2e-5 1.41269,0.21129 1.85417,0.63382 0.44145,0.42257 0.66219,1.01225 0.66221,1.76903 -2e-5,0.85773 -0.7316,3.0966 -2.19473,6.71664 l -0.47301,1.19196 c -0.31535,0.76943 -0.56446,1.48524 -0.74734,2.14743 -0.18291,0.66221 -0.27436,1.13206 -0.27434,1.40955 -2e-5,0.4667 0.17657,0.79465 0.52976,0.98384 0.35316,0.18921 1.0532,0.31534 2.10013,0.37841 l -0.71896,2.55421 -0.43516,0 c -2.06862,0 -3.58537,-0.2775 -4.55029,-0.83248 -0.96493,-0.55499 -1.44739,-1.42532 -1.44738,-2.61098 -10e-6,-0.54237 0.18288,-1.37485 0.54868,-2.49745 0.36578,-1.12259 0.92076,-2.5542 1.66497,-4.29486 l 0.15136,-0.35948 c 0.64327,-1.45053 0.96491,-2.30824 0.96492,-2.57314 -1e-5,-0.21441 -0.0536,-0.37208 -0.16082,-0.473 -0.10723,-0.10089 -0.27435,-0.15135 -0.50138,-0.15136 -0.7442,1e-5 -1.89517,0.94602 -3.45292,2.83801 -1.55776,1.89202 -2.92316,4.18766 -4.0962,6.88692 -0.23966,0.54238 -0.49823,1.20458 -0.77572,1.98661 -0.52977,1.43793 -1.56407,2.15689 -3.1029,2.15689 -0.50453,0 -0.85771,-0.0473 -1.05952,-0.1419 -0.20182,-0.0946 -0.30272,-0.26173 -0.30272,-0.50138 0,-0.12614 0.0347,-0.29326 0.10406,-0.50139 0.0694,-0.20812 0.17974,-0.46984 0.3311,-0.78518 z" />
<path
 inkscape:connector-curvature="0"
 id="path4739"
 style="fill:url(#radialGradient5064)"
 d="m 334.1699,754.73351 0.73789,-2.55421 c 0.69374,-0.0378 1.31495,-0.12613 1.86363,-0.26488 0.54868,-0.13875 1.04376,-0.33426 1.48522,-0.58653 -0.0631,-0.2901 -0.11036,-0.58967 -0.1419,-0.8987 -0.0315,-0.30903 -0.0473,-0.65274 -0.0473,-1.03115 0,-1.45053 0.2775,-2.89476 0.83249,-4.3327 0.55499,-1.43791 1.33701,-2.74971 2.34609,-3.93538 1.23611,-1.45052 2.55421,-2.54789 3.9543,-3.29209 1.40008,-0.74418 2.84431,-1.11627 4.3327,-1.11629 0.59282,2e-5 1.16042,0.0725 1.70281,0.21758 0.54236,0.14507 1.10996,0.36896 1.70281,0.67166 l 2.95153,-8.17348 c 0.0883,-0.23963 0.2081,-0.58649 0.35948,-1.0406 0.70633,-2.04334 1.68387,-3.06503 2.93262,-3.06506 1.00905,3e-5 1.72801,0.10094 2.15689,0.30273 0.42883,0.20184 0.64326,0.5424 0.64328,1.02168 -2e-5,0.22707 -0.18292,0.7253 -0.54868,1.49469 -0.23968,0.49195 -0.42257,0.88296 -0.54868,1.17304 l -3.40562,7.87076 c -1.24875,2.86326 -2.27043,5.56883 -3.06506,8.11672 -0.79466,2.54792 -1.19198,4.19396 -1.19196,4.93815 -2e-5,0.66851 0.19234,1.14151 0.57706,1.419 0.38469,0.2775 1.13204,0.45409 2.24203,0.52977 l -0.73788,2.53529 -0.34056,0 c -1.98032,0 -3.3741,-0.20812 -4.18134,-0.62436 -0.80727,-0.41625 -1.2109,-1.12259 -1.21089,-2.11905 -10e-6,-0.44147 0.0757,-0.98385 0.22704,-1.62713 0.15135,-0.64328 0.40362,-1.46946 0.7568,-2.47853 -1.29919,2.33348 -2.61413,4.07097 -3.94483,5.21248 -1.33073,1.14151 -2.72135,1.71227 -4.17189,1.71227 -0.71896,0 -1.36855,-0.12298 -1.94876,-0.36894 -0.58022,-0.24596 -1.00277,-0.57076 -1.26765,-0.97439 -0.50454,0.36579 -1.16674,0.65275 -1.98661,0.86087 -0.81987,0.20812 -1.84155,0.34371 -3.06506,0.40678 z m 17.76597,-14.45495 c -0.22705,-0.1009 -0.44779,-0.17658 -0.6622,-0.22704 -0.21444,-0.0504 -0.42887,-0.0757 -0.64328,-0.0757 -0.90818,10e-6 -1.8258,0.30273 -2.75288,0.90816 -0.92709,0.60546 -1.85733,1.50731 -2.79071,2.70557 -0.80727,1.0217 -1.46316,2.11276 -1.96769,3.27318 -0.50454,1.16044 -0.75681,2.11906 -0.75681,2.87585 0,0.56761 0.13875,1.01854 0.41625,1.35279 0.27749,0.33426 0.64327,0.50139 1.09736,0.50138 1.09736,10e-6 2.34293,-0.97753 3.73672,-2.93261 1.39377,-1.95507 2.83485,-4.74893 4.32324,-8.3816 z" />
<path
 inkscape:connector-curvature="0"
 id="path4741"
 style="fill:url(#radialGradient5066)"
 d="m 360.96076,753.20098 c -0.95862,0.44147 -1.91093,0.79465 -2.85694,1.05953 -0.946,0.26488 -1.86047,0.42255 -2.74341,0.473 l 0.73788,-2.55421 c 0.75681,-0.0378 1.47893,-0.15767 2.16635,-0.35949 0.68743,-0.20181 1.3654,-0.49191 2.03391,-0.87032 0.0252,-1.21088 0.19551,-2.51952 0.51085,-3.92592 0.31533,-1.40638 0.81987,-3.0682 1.5136,-4.98544 0.8451,-2.28301 1.47892,-3.75878 1.90147,-4.42731 0.42255,-0.66849 0.86086,-1.00274 1.31495,-1.00276 0.98384,2e-5 1.72803,0.11669 2.23257,0.35002 0.50453,0.23337 0.7568,0.58339 0.7568,1.05007 0,0.26489 -0.27119,0.96809 -0.81356,2.10959 -0.54238,1.14152 -0.95862,2.06545 -1.24873,2.77179 -0.68113,1.63975 -1.16043,2.97362 -1.43792,4.0016 -0.2775,1.028 -0.41625,1.93932 -0.41624,2.73395 -1e-5,0.47932 0.0977,0.8388 0.29326,1.07845 0.1955,0.23966 0.49507,0.35948 0.8987,0.35948 0.93339,0 2.00237,-0.70004 3.20696,-2.10013 1.20457,-1.40008 2.3177,-3.26055 3.33939,-5.58143 0.50453,-1.12258 0.99645,-2.47221 1.47577,-4.0489 0.50452,-1.69018 1.13519,-2.53527 1.89201,-2.53529 0.75679,2e-5 1.40638,0.13561 1.94877,0.40678 0.54236,0.27121 0.81355,0.61492 0.81356,1.03115 -10e-6,0.23967 -0.15138,0.71267 -0.45408,1.419 -0.22706,0.51717 -0.39734,0.93341 -0.51084,1.24873 l -4.27594,11.78722 c 0.68111,-0.15136 1.86677,-0.30903 3.55698,-0.473 0.15134,-0.0126 0.27117,-0.0252 0.35948,-0.0378 l -0.73789,2.55421 c -1.17306,0.11352 -2.06545,0.22389 -2.67719,0.3311 -0.61176,0.10721 -1.15098,0.23019 -1.61767,0.36894 -0.85772,3.03983 -1.8258,5.29762 -2.90423,6.7734 -1.07846,1.47575 -2.29249,2.21364 -3.64212,2.21365 -0.6559,-1e-5 -1.15728,-0.16399 -1.50415,-0.49193 -0.34687,-0.32795 -0.5203,-0.80726 -0.5203,-1.43792 0,-1.17305 0.45092,-2.33349 1.35279,-3.4813 0.90185,-1.14782 2.10958,-2.0686 3.62319,-2.76233 0.61805,-1.52622 1.19196,-2.99253 1.72173,-4.39893 0.52975,-1.40638 1.02798,-2.77809 1.49469,-4.11512 -1.33703,2.44701 -2.64882,4.23811 -3.93538,5.37331 -1.28657,1.13521 -2.6362,1.70281 -4.0489,1.70281 -0.63067,0 -1.21089,-0.15136 -1.74065,-0.45408 -0.52976,-0.30272 -0.88294,-0.68743 -1.05952,-1.15413 z" />
</g>
<path
 inkscape:connector-curvature="0"
 id="path4743"
 d="m 477.23128,901.10386 c -1.41138,0.0185 -2.81598,0.069 -4.21875,0.0937 -0.22565,0.60898 -0.45656,1.17366 -0.6875,1.6875 -1.0217,2.32087 -2.13918,4.19367 -3.34375,5.59375 -1.20458,1.40009 -2.25411,2.09375 -3.1875,2.09375 -0.40363,0 -0.71074,-0.10409 -0.90625,-0.34375 -0.19551,-0.23965 -0.31251,-0.61444 -0.3125,-1.09375 -1e-5,-0.79464 0.16001,-1.69075 0.4375,-2.71875 0.2775,-1.02798 0.75638,-2.36025 1.4375,-4 0.11712,-0.28518 0.34176,-0.76889 0.5,-1.125 -1.53323,0.0371 -3.07201,0.0805 -4.59375,0.125 -0.0192,0.0516 -0.0431,0.0725 -0.0625,0.125 -0.69373,1.91725 -1.18467,3.59362 -1.5,5 -0.31534,1.4064 -0.50601,2.72662 -0.53125,3.9375 -0.66851,0.37841 -1.34381,0.64194 -2.03125,0.84375 -0.68742,0.20182 -1.39944,0.33716 -2.15625,0.375 l -0.75,2.5625 c 0.88295,-0.0504 1.804,-0.20387 2.75,-0.46875 0.946,-0.26488 1.91638,-0.62103 2.875,-1.0625 0.17659,0.4667 0.53274,0.85353 1.0625,1.15625 0.52976,0.30272 1.08808,0.4375 1.71875,0.4375 1.41269,0 2.77593,-0.55229 4.0625,-1.6875 1.28656,-1.1352 2.60047,-2.928 3.9375,-5.375 -0.4667,1.33703 -0.97024,2.68736 -1.5,4.09375 -0.52977,1.40639 -1.10069,2.88003 -1.71875,4.40625 -1.51361,0.69373 -2.72314,1.63343 -3.625,2.78125 -0.90185,1.14781 -1.34375,2.2957 -1.34375,3.46875 0,0.63066 0.15313,1.10954 0.5,1.4375 0.34686,0.32794 0.8441,0.49999 1.5,0.5 1.34964,-10e-6 2.5778,-0.74299 3.65625,-2.21875 1.07843,-1.47577 2.04853,-3.74143 2.90625,-6.78125 0.46668,-0.13875 1.01324,-0.26779 1.625,-0.375 0.61174,-0.10721 1.4832,-0.19898 2.65625,-0.3125 l 0.75,-2.5625 c -0.0883,0.0126 -0.22366,0.0186 -0.375,0.0312 -1.69021,0.16398 -2.85014,0.31739 -3.53125,0.46875 l 4,-11.09375 z m -21.75,0.53125 c -1.48371,0.0549 -2.96609,0.12563 -4.4375,0.1875 -1.17932,2.64901 -2.35034,4.77494 -3.46875,6.34375 -1.39379,1.95508 -2.62139,2.9375 -3.71875,2.9375 -0.45408,0 -0.81625,-0.16574 -1.09375,-0.5 -0.27749,-0.33425 -0.4375,-0.77614 -0.4375,-1.34375 0,-0.7568 0.27671,-1.71456 0.78125,-2.875 0.50454,-1.16042 1.1615,-2.25956 1.96875,-3.28125 0.30084,-0.38621 0.57482,-0.73787 0.875,-1.0625 -1.99914,0.0959 -3.99471,0.20382 -5.96875,0.3125 -0.43251,0.70337 -0.79383,1.44172 -1.09375,2.21875 -0.55499,1.43794 -0.84375,2.89322 -0.84375,4.34375 0,0.37841 0.031,0.72223 0.0625,1.03125 0.0315,0.30903 0.0619,0.61615 0.125,0.90625 -0.44147,0.25227 -0.92007,0.42376 -1.46875,0.5625 -0.54868,0.13875 -1.18125,0.24341 -1.875,0.28125 l -0.75,2.5625 c 1.22351,-0.0631 2.24264,-0.19813 3.0625,-0.40625 0.81988,-0.20812 1.49546,-0.50921 2,-0.875 0.26489,0.40363 0.70104,0.72279 1.28125,0.96875 0.58022,0.24596 1.21853,0.375 1.9375,0.375 1.45054,0 2.82554,-0.57724 4.15625,-1.71875 1.3307,-1.14151 2.66957,-2.85402 3.96875,-5.1875 -0.35318,1.00908 -0.6299,1.82547 -0.78125,2.46875 -0.15136,0.64329 -0.21876,1.18353 -0.21875,1.625 -1e-5,0.99646 0.41148,1.70876 1.21875,2.125 0.80724,0.41624 2.20718,0.625 4.1875,0.625 l 0.34375,0 0.71875,-2.53125 c -1.11,-0.0757 -1.86531,-0.25375 -2.25,-0.53125 -0.38472,-0.27749 -0.56251,-0.76899 -0.5625,-1.4375 -1e-5,-0.74419 0.39284,-2.38959 1.1875,-4.9375 0.32245,-1.03389 0.69654,-2.10168 1.09375,-3.1875 z m -21.34375,12.625 0.71875,-2.5625 c -1.04693,-0.0631 -1.74059,-0.1858 -2.09375,-0.375 -0.35318,-0.1892 -0.53126,-0.5333 -0.53125,-1 -1e-5,-0.27749 0.0671,-0.74404 0.25,-1.40625 0.18289,-0.6622 0.43465,-1.35558 0.75,-2.125 l 0.46875,-1.21875 c 0.45369,-1.12248 0.812,-2.04936 1.125,-2.90625 -1.50023,0.092 -2.98452,0.18192 -4.46875,0.28125 -0.10443,0.24652 -0.15005,0.42291 -0.28125,0.71875 l -0.15625,0.34375 c -0.7442,1.74066 -1.32172,3.18991 -1.6875,4.3125 -0.36579,1.1226 -0.53126,1.95763 -0.53125,2.5 -1e-5,1.18566 0.47257,2.03876 1.4375,2.59375 0.96491,0.55499 2.4939,0.84375 4.5625,0.84375 l 0.4375,0 z m -7.125,-11.0625 c -0.76702,0.0546 -1.55004,0.0997 -2.3125,0.15625 -0.48771,0.71167 -0.98982,1.48509 -1.5,2.3125 0.24481,-0.73444 0.50756,-1.49493 0.78125,-2.25 -1.25456,0.0942 -2.4769,0.18179 -3.71875,0.28125 -0.0328,0.11736 -0.0611,0.26145 -0.0937,0.375 -0.75681,2.64882 -1.61047,4.55804 -2.53125,5.75 -0.92077,1.19197 -2.01934,1.82455 -3.34375,1.875 l -0.71875,2.5625 c 0.93339,-0.0504 1.76212,-0.25347 2.5,-0.5625 0.73788,-0.30903 1.38251,-0.7449 1.9375,-1.3125 -0.15136,0.31534 -0.27437,0.57313 -0.34375,0.78125 -0.0694,0.20812 -0.0937,0.40512 -0.0937,0.53125 0,0.23965 0.11069,0.4054 0.3125,0.5 0.20181,0.0946 0.55796,0.125 1.0625,0.125 1.53884,0 2.56398,-0.71832 3.09375,-2.15625 0.27749,-0.78203 0.54159,-1.42637 0.78125,-1.96875 1.17304,-2.69926 2.536,-5.01423 4.09375,-6.90625 0.031,-0.0377 0.0631,-0.0568 0.0937,-0.0937 z m -13.75,1.09375 c -1.60037,0.14361 -3.20456,0.28521 -4.78125,0.4375 -0.81026,1.44473 -1.63081,2.65737 -2.40625,3.625 -1.47577,1.84156 -2.82639,2.75 -4.0625,2.75 -0.44147,0 -0.75433,-0.14108 -0.96875,-0.4375 -0.21442,-0.29641 -0.3125,-0.75694 -0.3125,-1.375 0,-0.85771 0.2145,-1.85848 0.6875,-3 0.12367,-0.29847 0.29097,-0.58472 0.4375,-0.875 -1.6608,0.17702 -3.3063,0.34459 -4.9375,0.53125 -0.38659,1.13243 -0.59375,2.19028 -0.59375,3.15625 0,0.32795 0.006,0.62245 0.0312,0.90625 0.0252,0.28381 0.0745,0.57887 0.125,0.84375 -0.44148,0.25227 -0.95133,0.42376 -1.5,0.5625 -0.54868,0.13875 -1.15002,0.24341 -1.84375,0.28125 l -0.75,2.5625 c 1.08475,-0.0378 2.00523,-0.16086 2.8125,-0.34375 0.80726,-0.18289 1.52557,-0.44069 2.15625,-0.78125 0.30271,0.39102 0.74518,0.67319 1.28125,0.875 0.53607,0.20181 1.15602,0.3125 1.875,0.3125 1.5136,0 2.92559,-0.54627 4.25,-1.65625 1.3244,-1.10998 2.65035,-2.85345 4,-5.25 -0.35319,1.00908 -0.59866,1.82547 -0.75,2.46875 -0.15137,0.64329 -0.21876,1.18353 -0.21875,1.625 -10e-6,0.99646 0.41147,1.70876 1.21875,2.125 0.80723,0.41624 2.17592,0.625 4.15625,0.625 l 0.34375,0 0.75,-2.53125 c -1.12262,-0.1009 -1.84094,-0.27324 -2.15625,-0.46875 -0.31536,-0.1955 -0.46878,-0.52671 -0.46875,-1.03125 -3e-5,-0.73157 0.20244,-1.76905 0.625,-3.125 0.25564,-0.82038 0.59428,-1.79126 1,-2.8125 z m -35.8125,4.21875 c -1.79249,0.26859 -3.53798,0.53152 -5.28125,0.8125 -0.45199,1.88089 -0.65625,3.63603 -0.65625,5.28125 0,2.66142 0.62629,4.76133 1.875,6.28125 1.24872,1.51991 2.95549,2.28124 5.125,2.28125 1.62712,-1e-5 3.30896,-0.5956 5.09375,-1.78125 1.78479,-1.18567 3.60252,-2.91709 5.40625,-5.1875 0.64327,-0.81987 1.14681,-1.51956 1.5,-2.125 0.35316,-0.60544 0.53123,-1.06625 0.53125,-1.34375 -2e-5,-0.35317 -0.2274,-0.72739 -0.65625,-1.15625 -0.42886,-0.42885 -0.83434,-0.65625 -1.1875,-0.65625 -0.31535,0 -0.67751,0.37479 -1.09375,1.09375 -0.29012,0.51715 -0.55421,0.89739 -0.78125,1.1875 -1.37486,1.86678 -2.73151,3.29769 -4.09375,4.25 -1.36225,0.95231 -2.66354,1.40625 -3.9375,1.40625 -0.95862,0 -1.70188,-0.34382 -2.1875,-1.03125 -0.48562,-0.68743 -0.71875,-1.70026 -0.71875,-3.0625 0,-1.86368 0.36493,-3.9548 1.0625,-6.25 z"
 style="font-size:38.74835205px;font-style:normal;font-variant:normal;font-weight:normal;font-stretch:normal;line-height:125%;letter-spacing:0px;word-spacing:0px;fill:url(#radialGradient5070);fill-opacity:1;stroke:none;filter:url(#filter4308);font-family:Freehand521 BT;-inkscape-font-specification:Freehand521 BT" />
</g>
</g>
<text
 sodipodi:linespacing="125%"
 id="text5030"
 y="876.60297"
 x="471.45178"
 style="font-size:12.12177944px;font-style:normal;font-variant:normal;font-weight:normal;font-stretch:normal;line-height:125%;letter-spacing:0px;word-spacing:0px;fill:#000000;fill-opacity:1;stroke:none;font-family:EngraversGothic BT;-inkscape-font-specification:EngraversGothic BT"
 xml:space="preserve"><tspan
 y="876.60297"
 x="471.45178"
 id="tspan5032"
 sodipodi:role="line">alpha</tspan></text>
</g>
</g>
<g
 transform="translate(-331.6559,-818.60622)"
 id="g4892"
 inkscape:export-xdpi="36.240135"
 inkscape:export-ydpi="36.240135">
<g
 id="g4894"
 transform="matrix(0.35510463,0,0,0.35510463,378.22731,917.48576)">
<path
 transform="matrix(1.4600698,0,0,1.4600698,66.955204,-500.27264)"
 d="m 134.9739,433.43579 c 0,17.40995 -14.11355,31.52351 -31.52351,31.52351 -17.40995,0 -31.523506,-14.11356 -31.523506,-31.52351 0,-17.40995 14.113556,-31.52351 31.523506,-31.52351 17.40996,0 31.52351,14.11356 31.52351,31.52351 z"
 sodipodi:ry="31.52351"
 sodipodi:rx="31.52351"
 sodipodi:cy="433.43579"
 sodipodi:cx="103.45039"
 id="path4896"
 style="fill:#f0e060;stroke:#000000;stroke-width:1.67046809;stroke-miterlimit:4;stroke-dasharray:none;filter:url(#filter3193)"
 sodipodi:type="arc" />
<path
 style="fill:url(#radialGradient4902);fill-opacity:1;fill-rule:evenodd;stroke:#000000;stroke-width:1;stroke-miterlimit:4;stroke-dasharray:none"
 d="m 218,83.78125 c -26.93463,0 -48.78125,21.84667 -48.78125,48.78125 0,26.93463 21.84662,48.78125 48.78125,48.78125 26.93463,0 48.78125,-21.84662 48.78125,-48.78125 0,-26.93458 -21.84662,-48.78125 -48.78125,-48.78125 z m 0,4.375 c 24.52417,0 44.40625,19.88208 44.40625,44.40625 0,24.52417 -19.88208,44.40625 -44.40625,44.40625 -24.52417,0 -44.40625,-19.88208 -44.40625,-44.40625 0,-24.52417 19.88208,-44.40625 44.40625,-44.40625 z"
 id="path4898"
 inkscape:connector-curvature="0" />
</g>
<path
 sodipodi:type="arc"
 style="fill:url(#radialGradient4904);fill-opacity:1;stroke:none;filter:url(#filter4308)"
 id="path4900"
 sodipodi:cx="423.73373"
 sodipodi:cy="926.32037"
 sodipodi:rx="16.970562"
 sodipodi:ry="16.970562"
 d="m 440.7043,926.32037 c 0,9.37259 -7.59798,16.97057 -16.97057,16.97057 -9.37258,0 -16.97056,-7.59798 -16.97056,-16.97057 0,-9.37258 7.59798,-16.97056 16.97056,-16.97056 9.37259,0 16.97057,7.59798 16.97057,16.97056 z"
 transform="matrix(1.0311974,0,0,1.0311974,18.686994,8.9962484)" />
</g>
<g
 id="g7527"
 transform="matrix(0.35510463,0,0,0.35510463,158.07141,100.87954)"
 inkscape:export-xdpi="41.142857"
 inkscape:export-ydpi="41.142857">
<path
 transform="matrix(1.4600698,0,0,1.4600698,66.955204,-500.27264)"
 d="m 134.9739,433.43579 c 0,17.40995 -14.11355,31.52351 -31.52351,31.52351 -17.40995,0 -31.523506,-14.11356 -31.523506,-31.52351 0,-17.40995 14.113556,-31.52351 31.523506,-31.52351 17.40996,0 31.52351,14.11356 31.52351,31.52351 z"
 sodipodi:ry="31.52351"
 sodipodi:rx="31.52351"
 sodipodi:cy="433.43579"
 sodipodi:cx="103.45039"
 id="path7529"
 style="fill:#f0e060;stroke:#000000;stroke-width:1.67046809;stroke-miterlimit:4;stroke-dasharray:none;filter:url(#filter3193)"
 sodipodi:type="arc" />
<path
 style="fill:url(#radialGradient7545);fill-opacity:1;fill-rule:evenodd;stroke:#000000;stroke-width:1;stroke-miterlimit:4;stroke-dasharray:none"
 d="m 218,83.78125 c -26.93463,0 -48.78125,21.84667 -48.78125,48.78125 0,26.93463 21.84662,48.78125 48.78125,48.78125 26.93463,0 48.78125,-21.84662 48.78125,-48.78125 0,-26.93458 -21.84662,-48.78125 -48.78125,-48.78125 z m 0,4.375 c 24.52417,0 44.40625,19.88208 44.40625,44.40625 0,24.52417 -19.88208,44.40625 -44.40625,44.40625 -24.52417,0 -44.40625,-19.88208 -44.40625,-44.40625 0,-24.52417 19.88208,-44.40625 44.40625,-44.40625 z"
 id="path7531"
 inkscape:connector-curvature="0" />
</g>
<path
 sodipodi:type="arc"
 style="fill:url(#radialGradient7547);fill-opacity:1;stroke:none;filter:url(#filter4308)"
 id="path7533"
 sodipodi:cx="423.73373"
 sodipodi:cy="926.32037"
 sodipodi:rx="16.970562"
 sodipodi:ry="16.970562"
 d="m 440.7043,926.32037 a 16.970562,16.970562 0 1 1 -33.94113,0 16.970562,16.970562 0 1 1 33.94113,0 z"
 transform="matrix(1.0311974,0,0,1.0311974,-201.46891,-807.60997)" />
</g>
</svg>
